<?xml version="1.0" encoding="UTF-8"?><svg xmlns="http://www.w3.org/2000/svg" viewBox="0 0 771.5 491"><g id="b"><path d="m216.2,233.1c-4.6-16.4-6.4-33.4-10-50.1s-7.5-28.2-12.9-41.7-14.8-35.2-24.9-51.4c-9.6-15.4-20.8-30.1-33-43.6-13.2-14.5-28.7-26.9-44.8-38-6.9-4.4-14.3-6.8-22.3-7.1-8-1.8-16-1.4-23.9,1.1-13.9,3.8-29,14.6-35.9,27.6S-2.7,60.6,2.3,76c2,4.8,4,9.6,6,14.3,5.3,9,12.5,16.2,21.5,21.5,2.7,1.9,5.4,3.8,8.1,5.9l-12.1-9.4c13.2,10.3,24.9,22.2,35.2,35.4l-9.4-12.1c12.3,16.1,22.4,33.6,30.4,52.2l-6-14.3c6,14.2,10.7,28.8,14.1,43.8,3.9,17.1,5.7,34.7,10.4,51.7,4,14.6,14.5,28.2,27.6,35.9,12.9,7.5,31.8,10.7,46.2,6,14.5-4.7,28.5-13.7,35.9-27.6s10.4-30.4,6-46.2h0Z" style="fill:#1100d4;"/></g><g id="d"><g><g><path d="m497.4,213.8c.3-40.1,32.8-72.5,73-72.5s72.7,32.4,73,72.5h128.2c-.3-110.9-90.2-200.6-201.1-200.6s-200.9,89.8-201.1,200.6h128.2Z" style="fill:#2b5def;"/><g><rect x="643.3" y="213.6" width="128.1" height="213.9" style="fill:#2b5def;"/><circle cx="706.8" cy="427" r="64" style="fill:#2b5def;"/></g><g><rect x="369.2" y="213.1" width="128.1" height="213.9" style="fill:#2b5def;"/><circle cx="433.2" cy="425.5" r="64" style="fill:#2b5def;"/></g></g><g><path d="m223.3,213.8c.3-40.1,32.8-72.5,73-72.5s72.7,32.4,73,72.5h128.2c-.3-110.9-90.2-200.6-201.1-200.6S95.4,103,95.1,213.8h128.2Z" style="fill:#1100d4;"/><g><rect x="369.2" y="213.6" width="128.1" height="213.9" style="fill:#1100d4;"/><circle cx="432.7" cy="427" r="64" style="fill:#1100d4;"/></g><g><rect x="95.1" y="213.1" width="128.1" height="213.9" style="fill:#1100d4;"/><circle cx="159.1" cy="425.5" r="64" style="fill:#1100d4;"/></g></g></g></g></svg>