<svg width="237" height="84" viewBox="0 0 237 84" fill="none" xmlns="http://www.w3.org/2000/svg">
<path d="M36.6203 72.108C34.7603 72.108 33.8363 73.224 33.8363 74.712C33.8363 76.212 34.7603 77.328 36.6203 77.328C38.4803 77.328 39.4043 76.212 39.4043 74.712C39.4043 73.224 38.4803 72.108 36.6203 72.108ZM36.6203 73.104C37.7963 73.104 38.2523 73.836 38.2523 74.712C38.2523 75.588 37.7963 76.32 36.6203 76.32C35.4443 76.32 34.9883 75.588 34.9883 74.712C34.9883 73.836 35.4443 73.104 36.6203 73.104ZM41.5883 71.664C41.2763 71.664 40.9883 71.82 40.9883 72.168V77.412C40.9883 77.76 41.2763 77.916 41.5883 77.916C41.9003 77.916 42.1883 77.76 42.1883 77.412V75.24H43.5083C43.8203 75.24 43.9523 75.012 43.9523 74.712C43.9523 74.436 43.8203 74.196 43.5083 74.196H42.1883V72.168C42.1883 71.82 41.9003 71.664 41.5883 71.664ZM36.2243 78.432C35.5283 78.432 35.3003 78.648 35.3003 79.332V81.768C35.3003 82.452 35.5283 82.668 36.2243 82.668H41.2643C41.9603 82.668 42.1883 82.452 42.1883 81.768V79.332C42.1883 78.648 41.9603 78.432 41.2643 78.432H36.2243ZM40.7483 79.44C40.9283 79.44 41.0003 79.512 41.0003 79.692V81.408C41.0003 81.588 40.9283 81.66 40.7483 81.66H36.7403C36.5603 81.66 36.4883 81.588 36.4883 81.408V79.692C36.4883 79.512 36.5603 79.44 36.7403 79.44H40.7483ZM49.2942 72.48H45.6462C45.3462 72.48 45.2142 72.72 45.2142 73.008C45.2142 73.284 45.3462 73.524 45.6462 73.524H48.7662C48.9582 73.524 49.0182 73.584 49.0182 73.764V74.688C49.0182 76.236 48.7062 76.632 45.3102 78.696C45.0462 78.864 45.0582 79.224 45.2142 79.452C45.3702 79.68 45.6822 79.812 45.9462 79.656C49.6302 77.4 50.2182 76.74 50.2182 74.736V73.38C50.2182 72.696 49.9902 72.48 49.2942 72.48ZM53.0142 71.664C52.7142 71.664 52.4142 71.82 52.4142 72.168V81.528C52.4142 81.876 52.7142 82.032 53.0142 82.032C53.3382 82.032 53.6262 81.876 53.6262 81.528V72.168C53.6262 71.82 53.3382 71.664 53.0142 71.664ZM61.9801 77.016C61.1521 77.088 60.3361 77.136 59.5441 77.16V76.14C61.0081 75.972 61.7401 75.168 61.7401 74.076C61.7401 72.84 60.8161 71.964 58.9441 71.964C57.0721 71.964 56.1481 72.84 56.1481 74.076C56.1481 75.168 56.8801 75.984 58.3681 76.152V77.196C57.5281 77.208 56.7121 77.208 55.8961 77.208C55.6081 77.208 55.4761 77.448 55.4761 77.712C55.4761 77.976 55.6081 78.216 55.8961 78.216C58.1041 78.216 60.2281 78.144 62.0641 77.988C62.3281 77.964 62.4481 77.712 62.4241 77.448C62.4001 77.184 62.2561 76.98 61.9801 77.016ZM60.7321 78.804C58.4881 78.804 57.1801 79.452 57.1801 80.856C57.1801 82.26 58.4881 82.908 60.7321 82.908C62.9761 82.908 64.2841 82.26 64.2841 80.856C64.2841 79.452 62.9761 78.804 60.7321 78.804ZM63.6361 71.664C63.3361 71.664 63.0481 71.82 63.0481 72.156V78.228C63.0481 78.564 63.3361 78.72 63.6361 78.72C63.9481 78.72 64.2361 78.564 64.2361 78.228V75.696H65.4001C65.7121 75.696 65.8441 75.456 65.8441 75.168C65.8441 74.88 65.7121 74.64 65.4001 74.64H64.2361V72.156C64.2361 71.82 63.9481 71.664 63.6361 71.664ZM60.7321 79.764C62.3881 79.764 63.0961 80.16 63.0961 80.856C63.0961 81.552 62.3881 81.948 60.7321 81.948C59.0761 81.948 58.3681 81.552 58.3681 80.856C58.3681 80.16 59.0761 79.764 60.7321 79.764ZM58.9441 72.936C60.0841 72.936 60.6001 73.428 60.6001 74.076C60.6001 74.724 60.0841 75.204 58.9441 75.204C57.8041 75.204 57.2881 74.724 57.2881 74.076C57.2881 73.428 57.8041 72.936 58.9441 72.936ZM69.65 72.276C67.79 72.276 66.842 73.536 66.842 75.864C66.842 78.192 67.79 79.452 69.65 79.452C71.51 79.452 72.47 78.192 72.47 75.864C72.47 73.536 71.51 72.276 69.65 72.276ZM69.65 73.332C70.838 73.332 71.306 74.232 71.306 75.864C71.306 77.496 70.838 78.396 69.65 78.396C68.474 78.396 68.006 77.496 68.006 75.864C68.006 74.232 68.474 73.332 69.65 73.332ZM74.858 71.664C74.558 71.664 74.258 71.82 74.258 72.168V81.528C74.258 81.876 74.558 82.032 74.858 82.032C75.182 82.032 75.47 81.876 75.47 81.528V72.168C75.47 71.82 75.182 71.664 74.858 71.664ZM87.3398 78.948C86.4158 79.032 85.5278 79.092 84.6398 79.128V77.076H86.5118C86.7998 77.076 86.9318 76.848 86.9318 76.572C86.9318 76.284 86.7998 76.056 86.5118 76.056H82.6718C82.4918 76.056 82.4198 75.996 82.4198 75.804V73.704C82.4198 73.524 82.4918 73.464 82.6718 73.464H86.3918C86.6798 73.464 86.8118 73.224 86.8118 72.948C86.8118 72.672 86.6798 72.432 86.3918 72.432H82.1558C81.4598 72.432 81.2318 72.648 81.2318 73.332V76.176C81.2318 76.86 81.4598 77.076 82.1558 77.076H83.4638V79.152C82.6118 79.176 81.7598 79.176 80.9078 79.176C80.6198 79.176 80.4878 79.416 80.4878 79.68C80.4878 79.956 80.6198 80.196 80.9078 80.196C83.2598 80.196 85.5038 80.124 87.4238 79.944C87.6998 79.92 87.8078 79.668 87.7838 79.404C87.7718 79.116 87.6158 78.924 87.3398 78.948ZM89.0078 71.664C88.7078 71.664 88.4198 71.82 88.4198 72.168V81.528C88.4198 81.876 88.7078 82.032 89.0078 82.032C89.3198 82.032 89.6078 81.876 89.6078 81.528V72.168C89.6078 71.82 89.3198 71.664 89.0078 71.664ZM93.2577 71.94C92.9457 71.94 92.6577 72.096 92.6577 72.456V75.132C92.6577 75.816 92.8737 76.032 93.5697 76.032H99.7377C100.026 76.032 100.158 75.804 100.158 75.528C100.158 75.252 100.026 75.012 99.7377 75.012H94.1097C93.9297 75.012 93.8577 74.952 93.8577 74.772V72.456C93.8577 72.096 93.5697 71.94 93.2577 71.94ZM100.926 77.292H91.6857C91.3977 77.292 91.2657 77.52 91.2657 77.796C91.2657 78.072 91.3977 78.312 91.6857 78.312H100.926C101.214 78.312 101.346 78.072 101.346 77.796C101.346 77.52 101.214 77.292 100.926 77.292ZM93.2337 79.224C92.9217 79.224 92.6337 79.38 92.6337 79.728V81.732C92.6337 82.416 92.8497 82.632 93.5457 82.632H99.7617C100.05 82.632 100.182 82.392 100.182 82.116C100.182 81.84 100.05 81.612 99.7617 81.612H94.0857C93.9057 81.612 93.8337 81.54 93.8337 81.36V79.728C93.8337 79.38 93.5457 79.224 93.2337 79.224ZM111.32 72.492H106.1C105.8 72.492 105.668 72.732 105.668 73.008C105.668 73.284 105.8 73.524 106.1 73.524H108.128V74.676C108.128 75.732 107.912 76.284 107.204 77.004C106.7 77.52 106.208 77.988 105.656 78.48C105.416 78.684 105.44 79.008 105.632 79.224C105.812 79.428 106.136 79.548 106.388 79.332C106.892 78.888 107.348 78.444 107.828 77.964C108.524 77.268 108.68 76.98 108.74 76.704H108.752C108.8 76.956 108.968 77.244 109.652 77.94C110.144 78.42 110.576 78.84 110.924 79.152C111.164 79.356 111.464 79.284 111.656 79.08C111.848 78.888 111.92 78.552 111.68 78.336C111.284 78 110.78 77.52 110.276 77.004C109.568 76.284 109.352 75.732 109.352 74.676V73.524H111.32C111.608 73.524 111.74 73.284 111.74 73.008C111.74 72.732 111.608 72.492 111.32 72.492ZM113.624 71.664C113.324 71.664 113.024 71.82 113.024 72.168V81.528C113.024 81.876 113.324 82.032 113.624 82.032C113.948 82.032 114.236 81.876 114.236 81.528V72.168C114.236 71.82 113.948 71.664 113.624 71.664ZM123.825 71.988H117.897C117.633 71.988 117.513 72.216 117.513 72.456C117.513 72.72 117.633 72.936 117.897 72.936H123.393C123.525 72.936 123.585 72.996 123.585 73.116V73.608C123.585 73.74 123.525 73.788 123.393 73.788H118.461C117.765 73.788 117.537 74.004 117.537 74.688V75.612C117.537 76.296 117.765 76.512 118.461 76.512H124.629C124.893 76.512 125.013 76.284 125.013 76.032C125.013 75.78 124.893 75.564 124.629 75.564H118.881C118.761 75.564 118.701 75.504 118.701 75.384V74.88C118.701 74.76 118.761 74.7 118.881 74.7H123.825C124.521 74.7 124.749 74.484 124.749 73.8V72.888C124.749 72.204 124.521 71.988 123.825 71.988ZM125.769 77.316H116.529C116.241 77.316 116.109 77.532 116.109 77.808C116.109 78.096 116.241 78.312 116.529 78.312H125.769C126.057 78.312 126.189 78.096 126.189 77.808C126.189 77.532 126.057 77.316 125.769 77.316ZM123.909 79.14H118.389C117.693 79.14 117.477 79.356 117.477 80.04V81.816C117.477 82.5 117.693 82.716 118.389 82.716H123.909C124.605 82.716 124.833 82.5 124.833 81.816V80.04C124.833 79.356 124.605 79.14 123.909 79.14ZM118.905 80.112H123.393C123.573 80.112 123.645 80.172 123.645 80.352V81.492C123.645 81.684 123.573 81.744 123.393 81.744H118.905C118.725 81.744 118.653 81.684 118.653 81.492V80.352C118.653 80.172 118.725 80.112 118.905 80.112ZM131.747 72.156H128.087C127.799 72.156 127.667 72.396 127.667 72.672C127.667 72.948 127.799 73.188 128.087 73.188H131.219C131.411 73.188 131.471 73.248 131.471 73.428V73.776C131.471 74.736 131.207 74.976 127.835 76.44C127.523 76.584 127.511 76.932 127.619 77.16C127.751 77.424 128.039 77.58 128.315 77.46C132.059 75.792 132.671 75.384 132.671 73.812V73.056C132.671 72.372 132.443 72.156 131.747 72.156ZM135.479 71.664C135.167 71.664 134.879 71.82 134.879 72.168V76.824C134.879 77.172 135.167 77.328 135.479 77.328C135.791 77.328 136.079 77.172 136.079 76.824V72.168C136.079 71.82 135.791 71.664 135.479 71.664ZM135.155 77.844H129.467C129.191 77.844 129.071 78.072 129.071 78.324C129.071 78.588 129.191 78.816 129.467 78.816H134.651C134.843 78.816 134.903 78.876 134.903 79.056V79.572C134.903 79.764 134.843 79.824 134.651 79.824H130.019C129.323 79.824 129.095 80.04 129.095 80.724V81.828C129.095 82.512 129.323 82.728 130.019 82.728H135.947C136.223 82.728 136.343 82.5 136.343 82.248C136.343 81.996 136.223 81.768 135.947 81.768H130.511C130.331 81.768 130.259 81.696 130.259 81.516V81C130.259 80.808 130.331 80.748 130.511 80.748H135.155C135.851 80.748 136.079 80.532 136.079 79.848V78.744C136.079 78.06 135.851 77.844 135.155 77.844ZM139.345 72.12C138.949 72.12 138.685 72.288 138.685 72.696L138.841 78.36C138.841 78.744 139.081 78.876 139.345 78.876C139.609 78.876 139.849 78.744 139.861 78.36L140.005 72.696C140.017 72.288 139.741 72.12 139.345 72.12ZM139.345 79.86C138.901 79.86 138.553 80.196 138.553 80.64C138.553 81.084 138.901 81.432 139.345 81.432C139.789 81.432 140.137 81.084 140.137 80.64C140.137 80.196 139.789 79.86 139.345 79.86ZM151.258 71.784C150.97 71.784 150.694 71.928 150.694 72.252V75.348H149.302V73.44C149.302 72.756 149.074 72.54 148.378 72.54H145.774C145.078 72.54 144.85 72.756 144.85 73.44V78.288C144.85 78.972 145.078 79.188 145.774 79.188H148.378C149.074 79.188 149.302 78.972 149.302 78.288V76.368H150.694V81.06C150.694 81.384 150.97 81.528 151.258 81.528C151.534 81.528 151.81 81.384 151.81 81.06V72.252C151.81 71.928 151.534 71.784 151.258 71.784ZM153.406 71.664C153.13 71.664 152.854 71.808 152.854 72.132V81.564C152.854 81.888 153.13 82.032 153.406 82.032C153.694 82.032 153.97 81.888 153.97 81.564V72.132C153.97 71.808 153.694 71.664 153.406 71.664ZM146.218 73.572H147.934C148.114 73.572 148.186 73.632 148.186 73.812V77.916C148.186 78.096 148.114 78.156 147.934 78.156H146.218C146.038 78.156 145.966 78.096 145.966 77.916V73.812C145.966 73.632 146.038 73.572 146.218 73.572ZM163.296 72.336H157.776C157.08 72.336 156.864 72.552 156.864 73.236V76.776C156.864 77.46 157.08 77.676 157.776 77.676H159.936V79.968H155.916C155.628 79.968 155.496 80.196 155.496 80.472C155.496 80.748 155.628 80.988 155.916 80.988H165.156C165.444 80.988 165.576 80.748 165.576 80.472C165.576 80.196 165.444 79.968 165.156 79.968H161.136V77.676H163.296C163.992 77.676 164.22 77.46 164.22 76.776V73.236C164.22 72.552 163.992 72.336 163.296 72.336ZM158.316 73.368H162.756C162.936 73.368 163.008 73.428 163.008 73.608V76.404C163.008 76.584 162.936 76.644 162.756 76.644H158.316C158.136 76.644 158.064 76.584 158.064 76.404V73.608C158.064 73.428 158.136 73.368 158.316 73.368ZM170.87 72.408H167.282C166.982 72.408 166.862 72.648 166.862 72.924C166.862 73.2 166.982 73.44 167.282 73.44H170.366C170.546 73.44 170.618 73.5 170.618 73.68V75.192C170.618 75.372 170.546 75.444 170.366 75.444H167.786C167.09 75.444 166.862 75.648 166.862 76.332V78.624C166.862 79.308 167.09 79.524 167.786 79.524C170.114 79.524 171.542 79.416 172.658 79.26C172.922 79.224 173.03 78.96 172.994 78.672C172.97 78.408 172.79 78.204 172.514 78.24C171.218 78.42 169.886 78.492 168.302 78.492C168.11 78.492 168.05 78.432 168.05 78.252V76.668C168.05 76.488 168.11 76.428 168.302 76.428H170.87C171.566 76.428 171.794 76.212 171.794 75.528V73.308C171.794 72.624 171.566 72.408 170.87 72.408ZM174.35 71.664C174.038 71.664 173.75 71.82 173.75 72.168V81.528C173.75 81.876 174.038 82.032 174.35 82.032C174.662 82.032 174.95 81.876 174.95 81.528V76.332H176.27C176.582 76.332 176.714 76.092 176.714 75.804C176.714 75.516 176.582 75.288 176.27 75.288H174.95V72.168C174.95 71.82 174.662 71.664 174.35 71.664ZM180.568 72.276C178.708 72.276 177.76 73.536 177.76 75.864C177.76 78.192 178.708 79.452 180.568 79.452C182.428 79.452 183.388 78.192 183.388 75.864C183.388 73.536 182.428 72.276 180.568 72.276ZM180.568 73.332C181.756 73.332 182.224 74.232 182.224 75.864C182.224 77.496 181.756 78.396 180.568 78.396C179.392 78.396 178.924 77.496 178.924 75.864C178.924 74.232 179.392 73.332 180.568 73.332ZM185.776 71.664C185.476 71.664 185.176 71.82 185.176 72.168V81.528C185.176 81.876 185.476 82.032 185.776 82.032C186.1 82.032 186.388 81.876 186.388 81.528V72.168C186.388 71.82 186.1 71.664 185.776 71.664ZM194.37 72.288H189.174C188.874 72.288 188.742 72.528 188.742 72.804C188.742 73.08 188.874 73.308 189.174 73.308H191.214V73.884C191.214 74.664 190.986 75.144 190.422 75.612C189.858 76.056 189.342 76.44 188.766 76.836C188.49 77.04 188.502 77.364 188.67 77.592C188.814 77.796 189.126 77.94 189.402 77.748C189.882 77.412 190.386 77.04 190.914 76.62C191.514 76.14 191.766 75.84 191.826 75.576H191.838C191.898 75.816 192.114 76.08 192.726 76.572C193.242 76.98 193.734 77.352 194.022 77.556C194.322 77.76 194.61 77.604 194.766 77.412C194.934 77.172 194.934 76.872 194.67 76.68C194.286 76.404 193.77 76.032 193.218 75.576C192.642 75.108 192.414 74.628 192.414 73.848V73.308H194.37C194.658 73.308 194.79 73.08 194.79 72.804C194.79 72.528 194.658 72.288 194.37 72.288ZM196.71 71.664C196.398 71.664 196.11 71.82 196.11 72.168V77.748C196.11 78.084 196.398 78.24 196.71 78.24C197.022 78.24 197.31 78.084 197.31 77.748V72.168C197.31 71.82 197.022 71.664 196.71 71.664ZM193.878 78.348C191.67 78.348 190.386 79.116 190.386 80.616C190.386 82.116 191.67 82.884 193.878 82.884C196.086 82.884 197.37 82.116 197.37 80.616C197.37 79.116 196.086 78.348 193.878 78.348ZM193.878 79.32C195.486 79.32 196.182 79.824 196.182 80.616C196.182 81.408 195.486 81.912 193.878 81.912C192.258 81.912 191.574 81.408 191.574 80.616C191.574 79.824 192.258 79.32 193.878 79.32Z" fill="#3D4348"/>
<path d="M14.1344 36.1898C13.8337 35.1201 13.716 34.0114 13.4807 32.9221C13.2453 31.8329 12.9904 31.0829 12.6373 30.2024C12.2843 29.3219 11.6697 27.9066 11.0094 26.85C10.3818 25.8455 9.64961 24.8868 8.85202 24.0063C7.98905 23.0605 6.97572 22.2518 5.92315 21.5278C5.47206 21.2408 4.98827 21.0843 4.46526 21.0647C3.94225 20.9473 3.41923 20.9734 2.90276 21.1365C1.99403 21.3843 1.00684 22.0887 0.555743 22.9366C0.104645 23.7845 -0.176474 24.9389 0.150409 25.9434C0.281162 26.2564 0.411915 26.5695 0.542668 26.876C0.889163 27.463 1.35987 27.9326 1.94826 28.2783C2.12478 28.4022 2.3013 28.5262 2.47781 28.6631L1.68676 28.05C2.54973 28.7218 3.31463 29.498 3.98801 30.3589L3.37347 29.5697C4.1776 30.6198 4.8379 31.7612 5.36092 32.9743L4.96866 32.0416C5.36092 32.9678 5.66819 33.92 5.89047 34.8984C6.14543 36.0137 6.26311 37.1616 6.57038 38.2704C6.83189 39.2226 7.51834 40.1096 8.37477 40.6118C9.21813 41.101 10.4537 41.3097 11.3952 41.0032C12.3431 40.6966 13.2584 40.1096 13.7422 39.203C14.226 38.2965 14.4221 37.2203 14.1344 36.1898Z" fill="#0538C1"/>
<g filter="url(#filter0_d_570_1454)">
<path d="M32.4771 35.103C32.4967 32.4876 34.6214 30.3744 37.2496 30.3744C39.8777 30.3744 42.0024 32.4876 42.022 35.103H50.4033C50.3837 27.8699 44.5064 22.0195 37.2561 22.0195C30.0058 22.0195 24.122 27.8764 24.1089 35.103H32.4902H32.4771Z" fill="#2B5DEF"/>
<path d="M50.3901 35.09H42.0154V49.041H50.3901V35.09Z" fill="#2B5DEF"/>
<path d="M46.1668 53.1826C48.4776 53.1826 50.3509 51.3138 50.3509 49.0084C50.3509 46.703 48.4776 44.8342 46.1668 44.8342C43.8559 44.8342 41.9827 46.703 41.9827 49.0084C41.9827 51.3138 43.8559 53.1826 46.1668 53.1826Z" fill="#2B5DEF"/>
<path d="M32.4704 35.0574H24.0957V49.0084H32.4704V35.0574Z" fill="#2B5DEF"/>
<path d="M28.2798 53.0848C30.5906 53.0848 32.4639 51.2159 32.4639 48.9106C32.4639 46.6052 30.5906 44.7363 28.2798 44.7363C25.969 44.7363 24.0957 46.6052 24.0957 48.9106C24.0957 51.2159 25.969 53.0848 28.2798 53.0848Z" fill="#2B5DEF"/>
<path d="M14.5573 35.103C14.5769 32.4876 16.7016 30.3744 19.3298 30.3744C21.9579 30.3744 24.0826 32.4876 24.1023 35.103H32.4835C32.4639 27.8699 26.5866 22.0195 19.3363 22.0195C12.0861 22.0195 6.19564 27.8764 6.17603 35.103H14.5573Z" fill="#0538C1"/>
<path d="M32.4704 35.09H24.0957V49.041H32.4704V35.09Z" fill="#0538C1"/>
<path d="M28.2471 53.1826C30.5579 53.1826 32.4312 51.3138 32.4312 49.0084C32.4312 46.703 30.5579 44.8342 28.2471 44.8342C25.9363 44.8342 24.063 46.703 24.063 49.0084C24.063 51.3138 25.9363 53.1826 28.2471 53.1826Z" fill="#0538C1"/>
<path d="M14.5508 35.0574H6.17603V49.0084H14.5508V35.0574Z" fill="#0538C1"/>
<path d="M10.3601 53.0848C12.6709 53.0848 14.5442 51.2159 14.5442 48.9106C14.5442 46.6052 12.6709 44.7363 10.3601 44.7363C8.04931 44.7363 6.17603 46.6052 6.17603 48.9106C6.17603 51.2159 8.04931 53.0848 10.3601 53.0848Z" fill="#0538C1"/>
</g>
<g filter="url(#filter1_d_570_1454)">
<path d="M55.4219 52C55.0117 52 54.7114 51.9048 54.521 51.7144C54.3306 51.5239 54.2354 51.231 54.2354 50.8354V25.8306C54.2354 25.4204 54.3306 25.1274 54.521 24.9517C54.7114 24.7612 55.0117 24.666 55.4219 24.666H69.0449C69.3232 24.666 69.521 24.7539 69.6382 24.9297C69.77 25.1055 69.8359 25.4058 69.8359 25.8306V26.4678C69.8359 26.8633 69.77 27.1562 69.6382 27.3467C69.521 27.5371 69.3232 27.6323 69.0449 27.6323H57.6851V36.5312H67.8804C68.1587 36.5312 68.3564 36.6265 68.4736 36.8169C68.6055 37.0073 68.6714 37.3076 68.6714 37.7178V38.311C68.6714 38.7212 68.6055 39.0215 68.4736 39.2119C68.3564 39.3877 68.1587 39.4756 67.8804 39.4756H57.6851V49.0337H69.0889C69.3672 49.0337 69.5649 49.1289 69.6821 49.3193C69.814 49.4951 69.8799 49.7881 69.8799 50.1982V50.8354C69.8799 51.231 69.814 51.5239 69.6821 51.7144C69.5649 51.9048 69.3672 52 69.0889 52H55.4219ZM76.9111 52.0659C76.3545 52.0659 75.9517 52 75.7026 51.8682C75.4536 51.7217 75.3291 51.502 75.3291 51.209V25.4351C75.3291 24.8491 75.8564 24.5562 76.9111 24.5562H78.2954C79.1597 24.5562 79.709 24.7979 79.9434 25.2812L87.3262 38.0913L88.3369 40.5522L89.3477 38.311L96.7524 25.2812C97.0015 24.7979 97.5435 24.5562 98.3784 24.5562H99.6748C100.715 24.5562 101.235 24.8491 101.235 25.4351V51.209C101.235 51.7803 100.715 52.0659 99.6748 52.0659H99.4111C98.8545 52.0659 98.4517 52 98.2026 51.8682C97.9536 51.7217 97.8291 51.502 97.8291 51.209V30.1812L97.7632 30.3569L89.9849 43.8701C89.8823 44.0459 89.7651 44.1777 89.6333 44.2656C89.5015 44.3389 89.333 44.3755 89.1279 44.3755H87.5679C87.1724 44.3755 86.8794 44.207 86.689 43.8701L78.7349 29.9614V51.209C78.7349 51.7803 78.2148 52.0659 77.1748 52.0659H76.9111ZM118.989 52.2197C115.078 52.2197 112.097 51.0332 110.046 48.6602C107.995 46.2871 106.97 42.8154 106.97 38.2451C106.97 33.6895 107.988 30.2471 110.024 27.918C112.075 25.5742 115.063 24.4023 118.989 24.4023C122.929 24.4023 125.925 25.5742 127.976 27.918C130.026 30.2471 131.052 33.6895 131.052 38.2451C131.052 42.8154 130.026 46.2871 127.976 48.6602C125.925 51.0332 122.929 52.2197 118.989 52.2197ZM118.989 49.2534C121.743 49.2534 123.852 48.3159 125.317 46.4409C126.782 44.5513 127.514 41.8193 127.514 38.2451C127.514 34.6709 126.782 31.9683 125.317 30.1372C123.867 28.2915 121.757 27.3687 118.989 27.3687C116.235 27.3687 114.133 28.2915 112.683 30.1372C111.232 31.9683 110.507 34.6709 110.507 38.2451C110.507 41.834 111.232 44.5659 112.683 46.4409C114.133 48.3159 116.235 49.2534 118.989 49.2534ZM138.391 52.0659C137.834 52.0659 137.431 52 137.182 51.8682C136.933 51.7217 136.809 51.502 136.809 51.209V37.498C136.809 35.7988 136.728 34.5757 136.567 33.8286C136.406 33.0669 136.325 32.6494 136.325 32.5762C136.325 32.2539 136.567 32.0269 137.05 31.895C137.548 31.7485 138.017 31.6753 138.457 31.6753C138.808 31.6753 139.072 31.8657 139.248 32.2466C139.423 32.6128 139.577 33.1328 139.709 33.8066L139.819 34.2681C141.21 32.3198 142.719 31.3457 144.345 31.3457C145.092 31.3457 145.656 31.4849 146.037 31.7632C146.418 32.0269 146.608 32.3857 146.608 32.8398C146.608 33.2793 146.528 33.748 146.367 34.2461C146.22 34.7295 146.044 34.9712 145.839 34.9712C145.737 34.9712 145.554 34.9272 145.29 34.8394C145.056 34.7368 144.821 34.6636 144.587 34.6196C144.353 34.561 144.052 34.5317 143.686 34.5317C143.085 34.5317 142.514 34.7075 141.972 35.0591C141.445 35.4106 140.998 35.7988 140.632 36.2236C140.266 36.6484 140.083 36.8828 140.083 36.9268V51.209C140.083 51.502 139.958 51.7217 139.709 51.8682C139.46 52 139.072 52.0659 138.544 52.0659H138.391ZM152.541 26.6436C151.501 26.6436 150.981 26.3579 150.981 25.7866V23.4795C150.981 22.9082 151.501 22.6226 152.541 22.6226H153.002C154.057 22.6226 154.584 22.9082 154.584 23.4795V25.7866C154.584 26.3579 154.057 26.6436 153.002 26.6436H152.541ZM152.695 52.0659C151.655 52.0659 151.135 51.7803 151.135 51.209V32.3564C151.135 31.7852 151.655 31.4995 152.695 31.4995H152.849C153.903 31.4995 154.431 31.7852 154.431 32.3564V51.209C154.431 51.7803 153.903 52.0659 152.849 52.0659H152.695ZM160.253 52C160.092 52 159.909 51.7656 159.704 51.2969C159.499 50.8135 159.396 50.3813 159.396 50.0005C159.396 49.854 159.433 49.7075 159.506 49.561L170.954 34.3779H160.957C160.678 34.3779 160.48 34.29 160.363 34.1143C160.246 33.9238 160.188 33.6235 160.188 33.2134V32.73C160.188 32.3198 160.246 32.0269 160.363 31.8511C160.48 31.6606 160.678 31.5654 160.957 31.5654H174.667C174.843 31.5654 175.019 31.8071 175.195 32.2905C175.371 32.7739 175.458 33.2061 175.458 33.5869C175.458 33.7188 175.429 33.8579 175.371 34.0044L163.967 49.1875H174.711C174.99 49.1875 175.188 49.2827 175.305 49.4731C175.422 49.6489 175.48 49.9419 175.48 50.3521V50.8354C175.48 51.231 175.422 51.5239 175.305 51.7144C175.188 51.9048 174.99 52 174.711 52H160.253ZM182.028 26.6436C180.988 26.6436 180.468 26.3579 180.468 25.7866V23.4795C180.468 22.9082 180.988 22.6226 182.028 22.6226H182.49C183.544 22.6226 184.072 22.9082 184.072 23.4795V25.7866C184.072 26.3579 183.544 26.6436 182.49 26.6436H182.028ZM182.182 52.0659C181.142 52.0659 180.622 51.7803 180.622 51.209V32.3564C180.622 31.7852 181.142 31.4995 182.182 31.4995H182.336C183.391 31.4995 183.918 31.7852 183.918 32.3564V51.209C183.918 51.7803 183.391 52.0659 182.336 52.0659H182.182ZM192.377 52.0659C191.821 52.0659 191.418 52 191.169 51.8682C190.92 51.7217 190.795 51.502 190.795 51.209V37.498C190.795 35.7988 190.715 34.5757 190.554 33.8286C190.393 33.0669 190.312 32.6494 190.312 32.5762C190.312 32.2539 190.554 32.0269 191.037 31.895C191.535 31.7485 192.004 31.6753 192.443 31.6753C192.81 31.6753 193.081 31.873 193.256 32.2686C193.432 32.6641 193.557 33.0669 193.63 33.4771C193.718 33.8872 193.776 34.1509 193.806 34.2681C194.626 33.3452 195.571 32.6274 196.64 32.1147C197.724 31.6021 198.815 31.3457 199.914 31.3457C201.906 31.3457 203.459 31.9097 204.572 33.0376C205.7 34.1509 206.264 35.689 206.264 37.6519V51.209C206.264 51.502 206.14 51.7217 205.891 51.8682C205.642 52 205.246 52.0659 204.704 52.0659H204.528C204.001 52.0659 203.613 52 203.364 51.8682C203.115 51.7217 202.99 51.502 202.99 51.209V37.9814C202.99 36.7803 202.639 35.8501 201.936 35.1909C201.247 34.5171 200.273 34.1802 199.013 34.1802C198.134 34.1802 197.248 34.4292 196.354 34.9272C195.476 35.4106 194.714 36.0771 194.069 36.9268V51.209C194.069 51.502 193.945 51.7217 193.696 51.8682C193.447 52 193.059 52.0659 192.531 52.0659H192.377ZM219.074 60.2837C216.584 60.2837 214.614 59.8955 213.164 59.1191C211.713 58.3428 210.988 57.1196 210.988 55.4497C210.988 54.3071 211.318 53.311 211.977 52.4614C212.636 51.6118 213.493 50.9746 214.548 50.5498L214.592 50.4619C214.079 50.0664 213.684 49.6123 213.405 49.0996C213.142 48.5869 213.01 47.979 213.01 47.2759C213.01 45.5767 213.742 44.2144 215.207 43.189C214.108 42.6616 213.273 41.9219 212.702 40.9697C212.131 40.0029 211.845 38.9189 211.845 37.7178C211.845 36.5166 212.138 35.4326 212.724 34.4658C213.325 33.499 214.204 32.7373 215.361 32.1807C216.518 31.624 217.91 31.3457 219.536 31.3457C220.4 31.3457 221.169 31.4189 221.843 31.5654H228.94C229.218 31.5654 229.416 31.6606 229.533 31.8511C229.665 32.0269 229.731 32.3198 229.731 32.73V33.2134C229.731 33.6235 229.665 33.9238 229.533 34.1143C229.416 34.29 229.218 34.3779 228.94 34.3779C227.958 34.3779 227.05 34.3413 226.215 34.2681L226.171 34.334C226.508 34.8027 226.757 35.3301 226.918 35.916C227.094 36.4873 227.182 37.0879 227.182 37.7178C227.182 38.9189 226.882 40.0029 226.281 40.9697C225.695 41.9365 224.824 42.6982 223.667 43.2549C222.524 43.8115 221.132 44.0898 219.492 44.0898C218.261 44.1338 217.331 44.3608 216.701 44.771C216.086 45.1812 215.778 45.855 215.778 46.7925C215.778 47.481 215.998 48.0083 216.438 48.3745C216.892 48.7407 217.456 48.9971 218.129 49.1436C218.803 49.29 219.741 49.4292 220.942 49.561L222.084 49.6929C223.3 49.854 224.318 50.0737 225.139 50.3521C225.959 50.6304 226.633 51.0918 227.16 51.7363C227.702 52.3809 227.973 53.2671 227.973 54.395C227.973 56.2847 227.219 57.7349 225.71 58.7456C224.201 59.771 221.989 60.2837 219.074 60.2837ZM219.492 41.4971C220.927 41.4971 222.07 41.2041 222.919 40.6182C223.769 40.0322 224.194 39.0728 224.194 37.7397C224.194 35.2202 222.626 33.9604 219.492 33.9604C216.401 33.9604 214.855 35.2202 214.855 37.7397C214.855 39.0728 215.273 40.0322 216.108 40.6182C216.958 41.2041 218.085 41.4971 219.492 41.4971ZM219.492 57.625C221.308 57.625 222.656 57.3833 223.535 56.8999C224.414 56.4312 224.853 55.7134 224.853 54.7466C224.853 54.1167 224.619 53.626 224.15 53.2744C223.681 52.9375 223.103 52.6958 222.414 52.5493C221.74 52.4175 220.847 52.293 219.733 52.1758C218.972 52.0879 218.342 52.0073 217.844 51.9341C217.36 51.8608 216.914 51.7583 216.503 51.6265C214.775 52.3589 213.911 53.4209 213.911 54.8125C213.911 56.6875 215.771 57.625 219.492 57.625Z" fill="#2B5DEF"/>
<path d="M54.521 24.9517L55.4706 25.9804L55.4912 25.9614L55.5109 25.9416L54.521 24.9517ZM69.6382 24.9297L68.4733 25.7063L68.4949 25.7386L68.5182 25.7697L69.6382 24.9297ZM69.6382 27.3467L68.4871 26.5498L68.4656 26.5808L68.4459 26.6129L69.6382 27.3467ZM57.6851 27.6323V26.2323H56.2851V27.6323H57.6851ZM57.6851 36.5312H56.2851V37.9312H57.6851V36.5312ZM68.4736 36.8169L67.2813 37.5506L67.3011 37.5828L67.3226 37.6138L68.4736 36.8169ZM68.4736 39.2119L67.3226 38.415L67.3156 38.4251L67.3088 38.4353L68.4736 39.2119ZM57.6851 39.4756V38.0756H56.2851V39.4756H57.6851ZM57.6851 49.0337H56.2851V50.4337H57.6851V49.0337ZM69.6821 49.3193L68.4898 50.0531L68.5235 50.1079L68.5621 50.1593L69.6821 49.3193ZM69.6821 51.7144L68.5311 50.9175L68.5096 50.9485L68.4898 50.9806L69.6821 51.7144ZM55.4219 50.6C55.3195 50.6 55.2913 50.5875 55.3122 50.5941C55.3395 50.6027 55.4227 50.6361 55.5109 50.7244L53.531 52.7043C54.0936 53.2669 54.8311 53.4 55.4219 53.4V50.6ZM55.5109 50.7244C55.5931 50.8065 55.6274 50.8859 55.6382 50.9191C55.6468 50.9455 55.6354 50.9258 55.6354 50.8354H52.8354C52.8354 51.4289 52.9767 52.1499 53.531 52.7043L55.5109 50.7244ZM55.6354 50.8354V25.8306H52.8354V50.8354H55.6354ZM55.6354 25.8306C55.6354 25.7269 55.6482 25.7051 55.6382 25.7359C55.6257 25.7745 55.5822 25.8774 55.4706 25.9804L53.5714 23.9229C52.9632 24.4843 52.8354 25.2525 52.8354 25.8306H55.6354ZM55.5109 25.9416C55.4227 26.0299 55.3395 26.0633 55.3122 26.0719C55.2913 26.0786 55.3195 26.066 55.4219 26.066V23.266C54.8311 23.266 54.0936 23.3992 53.531 23.9617L55.5109 25.9416ZM55.4219 26.066H69.0449V23.266H55.4219V26.066ZM69.0449 26.066C69.042 26.066 68.9569 26.0662 68.8334 26.0113C68.6961 25.9503 68.5656 25.8447 68.4733 25.7063L70.8031 24.1531C70.3462 23.4679 69.626 23.266 69.0449 23.266V26.066ZM68.5182 25.7697C68.4703 25.7058 68.4444 25.6521 68.4318 25.6219C68.4193 25.5919 68.4171 25.5779 68.4191 25.5869C68.4209 25.5955 68.4255 25.6195 68.4293 25.6621C68.4332 25.7043 68.4359 25.7599 68.4359 25.8306H71.2359C71.2359 25.3433 71.1765 24.6475 70.7582 24.0897L68.5182 25.7697ZM68.4359 25.8306V26.4678H71.2359V25.8306H68.4359ZM68.4359 26.4678C68.4359 26.5283 68.4334 26.5758 68.43 26.6117C68.4265 26.6479 68.4225 26.6687 68.4206 26.6768C68.4188 26.685 68.4201 26.6761 68.4289 26.6545C68.4379 26.6328 68.4555 26.5954 68.4871 26.5498L70.7893 28.1436C71.1619 27.6052 71.2359 26.9682 71.2359 26.4678H68.4359ZM68.4459 26.6129C68.5249 26.4844 68.6473 26.3705 68.7946 26.2995C68.929 26.2348 69.0285 26.2323 69.0449 26.2323V29.0323C69.6723 29.0323 70.3941 28.7896 70.8305 28.0804L68.4459 26.6129ZM69.0449 26.2323H57.6851V29.0323H69.0449V26.2323ZM56.2851 27.6323V36.5312H59.0851V27.6323H56.2851ZM57.6851 37.9312H67.8804V35.1313H57.6851V37.9312ZM67.8804 37.9312C67.8639 37.9312 67.7644 37.9288 67.6301 37.8641C67.4827 37.7931 67.3604 37.6791 67.2813 37.5506L69.666 36.0832C69.2295 35.374 68.5077 35.1313 67.8804 35.1313V37.9312ZM67.3226 37.6138C67.2887 37.5649 67.2704 37.5253 67.2616 37.5036C67.253 37.4821 67.2521 37.4743 67.2545 37.4851C67.2568 37.4958 67.2613 37.5199 67.265 37.5601C67.2687 37.6001 67.2714 37.6522 67.2714 37.7178H70.0714C70.0714 37.2157 70.0016 36.5644 69.6247 36.02L67.3226 37.6138ZM67.2714 37.7178V38.311H70.0714V37.7178H67.2714ZM67.2714 38.311C67.2714 38.3766 67.2687 38.4287 67.265 38.4687C67.2613 38.509 67.2568 38.533 67.2545 38.5437C67.2521 38.5545 67.253 38.5467 67.2616 38.5252C67.2704 38.5035 67.2887 38.4639 67.3226 38.415L69.6247 40.0088C70.0016 39.4644 70.0714 38.8131 70.0714 38.311H67.2714ZM67.3088 38.4353C67.401 38.2969 67.5316 38.1913 67.6688 38.1303C67.7924 38.0754 67.8775 38.0756 67.8804 38.0756V40.8756C68.4614 40.8756 69.1817 40.6737 69.6385 39.9885L67.3088 38.4353ZM67.8804 38.0756H57.6851V40.8756H67.8804V38.0756ZM56.2851 39.4756V49.0337H59.0851V39.4756H56.2851ZM57.6851 50.4337H69.0889V47.6337H57.6851V50.4337ZM69.0889 50.4337C69.0724 50.4337 68.9729 50.4312 68.8386 50.3665C68.6912 50.2956 68.5689 50.1816 68.4898 50.0531L70.8745 48.5856C70.438 47.8764 69.7162 47.6337 69.0889 47.6337V50.4337ZM68.5621 50.1593C68.5169 50.099 68.4916 50.0478 68.4787 50.0173C68.466 49.9872 68.4632 49.972 68.4646 49.9782C68.4659 49.9842 68.47 50.0048 68.4736 50.0433C68.4772 50.0815 68.4799 50.1326 68.4799 50.1982H71.2799C71.2799 49.7122 71.2162 49.0315 70.8021 48.4793L68.5621 50.1593ZM68.4799 50.1982V50.8354H71.2799V50.1982H68.4799ZM68.4799 50.8354C68.4799 50.896 68.4773 50.9435 68.4739 50.9794C68.4704 51.0156 68.4664 51.0364 68.4646 51.0445C68.4627 51.0527 68.4641 51.0437 68.4729 51.0222C68.4818 51.0004 68.4995 50.9631 68.5311 50.9175L70.8332 52.5112C71.2059 51.9729 71.2799 51.3358 71.2799 50.8354H68.4799ZM68.4898 50.9806C68.5689 50.8521 68.6912 50.7381 68.8386 50.6672C68.9729 50.6025 69.0724 50.6 69.0889 50.6V53.4C69.7162 53.4 70.438 53.1573 70.8745 52.4481L68.4898 50.9806ZM69.0889 50.6H55.4219V53.4H69.0889V50.6ZM75.7026 51.8682L74.9928 53.0749L75.0199 53.0908L75.0476 53.1055L75.7026 51.8682ZM79.9434 25.2812L78.6836 25.892L78.7054 25.937L78.7304 25.9803L79.9434 25.2812ZM87.3262 38.0913L88.6212 37.5594L88.5857 37.4731L88.5391 37.3922L87.3262 38.0913ZM88.3369 40.5522L87.0419 41.0841L88.2768 44.0909L89.6131 41.1278L88.3369 40.5522ZM89.3477 38.311L88.1305 37.6193L88.0982 37.676L88.0714 37.7355L89.3477 38.311ZM96.7524 25.2812L97.9696 25.973L97.9838 25.948L97.997 25.9224L96.7524 25.2812ZM98.2026 51.8682L97.4928 53.0749L97.5199 53.0908L97.5476 53.1055L98.2026 51.8682ZM97.8291 30.1812H99.2291L96.5182 29.6896L97.8291 30.1812ZM97.7632 30.3569L98.9765 31.0553L99.0338 30.9559L99.074 30.8485L97.7632 30.3569ZM89.9849 43.8701L91.1942 44.5755L91.1982 44.5685L89.9849 43.8701ZM89.6333 44.2656L90.3132 45.4894L90.3627 45.4619L90.4099 45.4305L89.6333 44.2656ZM86.689 43.8701L87.9078 43.1812L87.9043 43.1751L86.689 43.8701ZM78.7349 29.9614L79.9502 29.2664L77.3349 24.6932V29.9614H78.7349ZM76.9111 50.6659C76.6833 50.6659 76.523 50.6521 76.4176 50.6349C76.3049 50.6164 76.3024 50.6016 76.3577 50.6309L75.0476 53.1055C75.6138 53.4052 76.3078 53.4659 76.9111 53.4659V50.6659ZM76.4125 50.6615C76.4688 50.6946 76.5651 50.7701 76.6405 50.9033C76.7154 51.0355 76.7291 51.1526 76.7291 51.209H73.9291C73.9291 51.9895 74.3088 52.6725 74.9928 53.0749L76.4125 50.6615ZM76.7291 51.209V25.4351H73.9291V51.209H76.7291ZM76.7291 25.4351C76.7291 25.5052 76.7109 25.6334 76.6285 25.7708C76.5473 25.9062 76.4491 25.9749 76.4045 25.9997C76.368 26.02 76.3786 26.0053 76.4739 25.9877C76.5663 25.9706 76.7083 25.9562 76.9111 25.9562V23.1562C76.3 23.1562 75.6189 23.2331 75.0447 23.5521C74.7365 23.7233 74.4405 23.9752 74.2275 24.3302C74.0132 24.6874 73.9291 25.0719 73.9291 25.4351H76.7291ZM76.9111 25.9562H78.2954V23.1562H76.9111V25.9562ZM78.2954 25.9562C78.6122 25.9562 78.755 26.0027 78.7918 26.0189C78.8044 26.0244 78.787 26.0187 78.7577 25.9916C78.7268 25.963 78.7006 25.9271 78.6836 25.892L81.2031 24.6705C80.6118 23.4509 79.3405 23.1562 78.2954 23.1562V25.9562ZM78.7304 25.9803L86.1132 38.7904L88.5391 37.3922L81.1563 24.5822L78.7304 25.9803ZM86.0311 38.6232L87.0419 41.0841L89.6319 40.0204L88.6212 37.5594L86.0311 38.6232ZM89.6131 41.1278L90.6239 38.8866L88.0714 37.7355L87.0607 39.9767L89.6131 41.1278ZM90.5648 39.0028L97.9696 25.973L95.5353 24.5895L88.1305 37.6193L90.5648 39.0028ZM97.997 25.9224C97.9846 25.9464 97.9647 25.9735 97.9402 25.996C97.9167 26.0175 97.9036 26.0215 97.9159 26.016C97.9501 26.0008 98.083 25.9562 98.3784 25.9562V23.1562C97.3279 23.1562 96.1114 23.4686 95.5079 24.6401L97.997 25.9224ZM98.3784 25.9562H99.6748V23.1562H98.3784V25.9562ZM99.6748 25.9562C99.8731 25.9562 100.011 25.9704 100.099 25.987C100.19 26.0041 100.197 26.0177 100.158 25.9956C100.11 25.9688 100.012 25.8984 99.9325 25.7634C99.8519 25.6272 99.8349 25.5018 99.8349 25.4351H102.635C102.635 24.625 102.222 23.945 101.532 23.5561C100.959 23.2334 100.28 23.1562 99.6748 23.1562V25.9562ZM99.8349 25.4351V51.209H102.635V25.4351H99.8349ZM99.8349 51.209C99.8349 51.1323 99.8548 50.9987 99.9405 50.8576C100.024 50.7192 100.125 50.6496 100.171 50.6246C100.208 50.604 100.199 50.6181 100.105 50.6353C100.014 50.6519 99.8747 50.6659 99.6748 50.6659V53.4659C100.277 53.4659 100.95 53.3911 101.519 53.0788C101.824 52.911 102.12 52.6628 102.334 52.3102C102.55 51.9548 102.635 51.5713 102.635 51.209H99.8349ZM99.6748 50.6659H99.4111V53.4659H99.6748V50.6659ZM99.4111 50.6659C99.1833 50.6659 99.023 50.6521 98.9176 50.6349C98.8049 50.6164 98.8024 50.6016 98.8577 50.6309L97.5476 53.1055C98.1138 53.4052 98.8078 53.4659 99.4111 53.4659V50.6659ZM98.9125 50.6615C98.9688 50.6946 99.0651 50.7701 99.1405 50.9033C99.2154 51.0355 99.2291 51.1526 99.2291 51.209H96.4291C96.4291 51.9895 96.8088 52.6725 97.4928 53.0749L98.9125 50.6615ZM99.2291 51.209V30.1812H96.4291V51.209H99.2291ZM96.5182 29.6896L96.4523 29.8654L99.074 30.8485L99.14 30.6727L96.5182 29.6896ZM96.5498 29.6585L88.7715 43.1717L91.1982 44.5685L98.9765 31.0553L96.5498 29.6585ZM88.7756 43.1647C88.7509 43.207 88.7682 43.1598 88.8567 43.1008L90.4099 45.4305C90.7621 45.1957 91.0138 44.8848 91.1942 44.5755L88.7756 43.1647ZM88.9534 43.0418C89.091 42.9653 89.177 42.9755 89.1279 42.9755V45.7755C89.489 45.7755 89.9119 45.7124 90.3132 45.4894L88.9534 43.0418ZM89.1279 42.9755H87.5679V45.7755H89.1279V42.9755ZM87.5679 42.9755C87.573 42.9755 87.6498 42.9782 87.7494 43.0355C87.8505 43.0936 87.8977 43.1635 87.9078 43.1812L85.4702 44.559C85.9157 45.3472 86.6814 45.7755 87.5679 45.7755V42.9755ZM87.9043 43.1751L79.9502 29.2664L77.5196 30.6564L85.4737 44.5651L87.9043 43.1751ZM77.3349 29.9614V51.209H80.1349V29.9614H77.3349ZM77.3349 51.209C77.3349 51.1323 77.3548 50.9987 77.4405 50.8576C77.5245 50.7192 77.6254 50.6496 77.6708 50.6246C77.7084 50.604 77.6989 50.6181 77.6052 50.6353C77.5144 50.6519 77.3747 50.6659 77.1748 50.6659V53.4659C77.7771 53.4659 78.4502 53.3911 79.0189 53.0788C79.3243 52.911 79.6202 52.6628 79.8342 52.3102C80.0499 51.9548 80.1349 51.5713 80.1349 51.209H77.3349ZM77.1748 50.6659H76.9111V53.4659H77.1748V50.6659ZM110.024 27.918L108.97 26.9961L108.97 26.9965L110.024 27.918ZM127.976 27.918L126.922 28.8399L126.925 28.8431L127.976 27.918ZM125.317 46.4409L126.42 47.3028L126.423 47.2987L125.317 46.4409ZM125.317 30.1372L124.216 31.0022L124.224 31.0118L125.317 30.1372ZM112.683 30.1372L113.78 31.0064L113.783 31.0022L112.683 30.1372ZM118.989 50.8197C115.376 50.8197 112.826 49.7363 111.105 47.7447L108.987 49.5756C111.367 52.3301 114.78 53.6197 118.989 53.6197V50.8197ZM111.105 47.7447C109.356 45.7205 108.37 42.6297 108.37 38.2451H105.57C105.57 43.0012 106.634 46.8537 108.987 49.5756L111.105 47.7447ZM108.37 38.2451C108.37 33.872 109.35 30.8162 111.078 28.8394L108.97 26.9965C106.626 29.678 105.57 33.5069 105.57 38.2451H108.37ZM111.078 28.8399C112.796 26.8759 115.353 25.8023 118.989 25.8023V23.0023C114.773 23.0023 111.353 24.2726 108.97 26.9961L111.078 28.8399ZM118.989 25.8023C122.641 25.8023 125.204 26.877 126.922 28.8399L129.029 26.9961C126.645 24.2714 123.218 23.0023 118.989 23.0023V25.8023ZM126.925 28.8431C128.665 30.8198 129.652 33.8741 129.652 38.2451H132.452C132.452 33.5048 131.387 29.6743 129.026 26.9928L126.925 28.8431ZM129.652 38.2451C129.652 42.6297 128.666 45.7205 126.916 47.7447L129.035 49.5756C131.387 46.8537 132.452 43.0012 132.452 38.2451H129.652ZM126.916 47.7447C125.197 49.734 122.635 50.8197 118.989 50.8197V53.6197C123.223 53.6197 126.652 52.3324 129.035 49.5756L126.916 47.7447ZM118.989 50.6534C122.097 50.6534 124.646 49.5735 126.42 47.3028L124.214 45.579C123.058 47.0583 121.388 47.8534 118.989 47.8534V50.6534ZM126.423 47.2987C128.152 45.0684 128.914 41.983 128.914 38.2451H126.114C126.114 41.6556 125.411 44.0341 124.21 45.5832L126.423 47.2987ZM128.914 38.2451C128.914 34.5116 128.154 31.4425 126.41 29.2626L124.224 31.0118C125.409 32.494 126.114 34.8302 126.114 38.2451H128.914ZM126.418 29.2723C124.653 27.0262 122.101 25.9687 118.989 25.9687V28.7687C121.414 28.7687 123.08 29.5568 124.216 31.0022L126.418 29.2723ZM118.989 25.9687C115.889 25.9687 113.345 27.0281 111.582 29.2723L113.783 31.0022C114.921 29.5549 116.581 28.7687 118.989 28.7687V25.9687ZM111.585 29.268C109.859 31.4473 109.107 34.5142 109.107 38.2451H111.907C111.907 34.8276 112.606 32.4892 113.78 31.0064L111.585 29.268ZM109.107 38.2451C109.107 41.9925 109.86 45.0796 111.575 47.2974L113.79 45.5844C112.605 44.0523 111.907 41.6754 111.907 38.2451H109.107ZM111.575 47.2974C113.335 49.5733 115.881 50.6534 118.989 50.6534V47.8534C116.589 47.8534 114.93 47.0585 113.79 45.5844L111.575 47.2974ZM137.182 51.8682L136.472 53.0749L136.499 53.0908L136.527 53.1055L137.182 51.8682ZM136.567 33.8286L135.197 34.1184L135.198 34.1238L136.567 33.8286ZM137.05 31.895L137.419 33.2457L137.432 33.242L137.445 33.2381L137.05 31.895ZM139.248 32.2466L137.976 32.8333L137.981 32.8429L137.985 32.8524L139.248 32.2466ZM139.709 33.8066L138.335 34.0755L138.34 34.1033L138.347 34.1309L139.709 33.8066ZM139.819 34.2681L138.457 34.5923L139.17 37.5856L140.958 35.0818L139.819 34.2681ZM146.037 31.7632L145.211 32.8935L145.226 32.9041L145.24 32.9143L146.037 31.7632ZM146.367 34.2461L145.035 33.8151L145.031 33.8276L145.027 33.8401L146.367 34.2461ZM145.29 34.8394L144.729 36.122L144.787 36.1474L144.847 36.1675L145.29 34.8394ZM144.587 34.6196L144.247 35.9778L144.288 35.988L144.329 35.9956L144.587 34.6196ZM141.972 35.0591L141.21 33.8845L141.203 33.8893L141.196 33.8942L141.972 35.0591ZM139.709 51.8682L140.364 53.1055L140.392 53.0908L140.419 53.0749L139.709 51.8682ZM138.391 50.6659C138.163 50.6659 138.002 50.6521 137.897 50.6349C137.784 50.6164 137.782 50.6016 137.837 50.6309L136.527 53.1055C137.093 53.4052 137.787 53.4659 138.391 53.4659V50.6659ZM137.892 50.6615C137.948 50.6946 138.045 50.7701 138.12 50.9033C138.195 51.0355 138.209 51.1526 138.209 51.209H135.409C135.409 51.9895 135.788 52.6725 136.472 53.0749L137.892 50.6615ZM138.209 51.209V37.498H135.409V51.209H138.209ZM138.209 37.498C138.209 35.7899 138.13 34.4376 137.935 33.5334L135.198 34.1238C135.326 34.7137 135.409 35.8078 135.409 37.498H138.209ZM137.937 33.5389C137.857 33.1607 137.798 32.8754 137.76 32.6789C137.741 32.5798 137.729 32.5115 137.722 32.4688C137.718 32.4471 137.717 32.4404 137.718 32.4442C137.718 32.4462 137.719 32.4568 137.721 32.4731C137.722 32.4855 137.725 32.5241 137.725 32.5762H134.925C134.925 32.731 134.954 32.8905 134.959 32.9225C134.972 33.0025 134.99 33.0999 135.011 33.2095C135.054 33.4305 135.116 33.7348 135.197 34.1184L137.937 33.5389ZM137.725 32.5762C137.725 32.6752 137.706 32.7943 137.652 32.9162C137.599 33.0372 137.527 33.126 137.465 33.1846C137.355 33.2876 137.294 33.2796 137.419 33.2457L136.682 30.5444C136.323 30.6423 135.899 30.8138 135.548 31.1438C135.155 31.5133 134.925 32.0161 134.925 32.5762H137.725ZM137.445 33.2381C137.838 33.1227 138.172 33.0753 138.457 33.0753V30.2753C137.862 30.2753 137.259 30.3743 136.655 30.5519L137.445 33.2381ZM138.457 33.0753C138.363 33.0753 138.225 33.0443 138.098 32.9531C137.986 32.8723 137.961 32.7996 137.976 32.8333L140.519 31.6599C140.358 31.3127 140.113 30.9544 139.738 30.6832C139.348 30.4015 138.901 30.2753 138.457 30.2753V33.0753ZM137.985 32.8524C138.087 33.063 138.213 33.4499 138.335 34.0755L141.083 33.5378C140.942 32.8157 140.76 32.1626 140.51 31.6408L137.985 32.8524ZM138.347 34.1309L138.457 34.5923L141.181 33.9438L141.071 33.4824L138.347 34.1309ZM140.958 35.0818C142.218 33.3183 143.357 32.7457 144.345 32.7457V29.9457C142.081 29.9457 140.203 31.3213 138.68 33.4543L140.958 35.0818ZM144.345 32.7457C144.956 32.7457 145.173 32.866 145.211 32.8935L146.863 30.6328C146.139 30.1037 145.229 29.9457 144.345 29.9457V32.7457ZM145.24 32.9143C145.258 32.9266 145.261 32.9312 145.256 32.9254C145.25 32.919 145.239 32.9058 145.229 32.8863C145.218 32.8667 145.212 32.8488 145.21 32.8364C145.207 32.8247 145.208 32.8245 145.208 32.8398H148.008C148.008 31.9154 147.584 31.131 146.834 30.6121L145.24 32.9143ZM145.208 32.8398C145.208 33.1081 145.159 33.4305 145.035 33.8151L147.699 34.677C147.897 34.0656 148.008 33.4505 148.008 32.8398H145.208ZM145.027 33.8401C144.972 34.0205 144.947 34.03 144.993 33.9665C145.021 33.9282 145.097 33.8332 145.238 33.7438C145.391 33.6464 145.599 33.5712 145.839 33.5712V36.3712C146.569 36.3712 147.033 35.9218 147.257 35.6134C147.479 35.3082 147.615 34.9551 147.707 34.6521L145.027 33.8401ZM145.839 33.5712C145.876 33.5712 145.904 33.5731 145.922 33.5747C145.941 33.5764 145.954 33.5782 145.96 33.5792C145.972 33.5811 145.971 33.5814 145.952 33.5769C145.913 33.5676 145.843 33.5478 145.733 33.5112L144.847 36.1675C145.089 36.2481 145.478 36.3712 145.839 36.3712V33.5712ZM145.851 33.5567C145.527 33.4147 145.191 33.3085 144.845 33.2436L144.329 35.9956C144.452 36.0187 144.585 36.0589 144.729 36.122L145.851 33.5567ZM144.926 33.2614C144.54 33.1647 144.114 33.1317 143.686 33.1317V35.9317C143.99 35.9317 144.165 35.9573 144.247 35.9778L144.926 33.2614ZM143.686 33.1317C142.794 33.1317 141.961 33.3975 141.21 33.8845L142.734 36.2336C143.067 36.0176 143.376 35.9317 143.686 35.9317V33.1317ZM141.196 33.8942C140.576 34.3071 140.03 34.7771 139.571 35.3095L141.692 37.1377C141.966 36.8205 142.313 36.5141 142.749 36.224L141.196 33.8942ZM139.571 35.3095C139.384 35.5269 139.229 35.712 139.117 35.8561C139.063 35.9253 139.001 36.0068 138.947 36.0886C138.922 36.1274 138.88 36.1936 138.839 36.2753C138.833 36.2881 138.683 36.5598 138.683 36.9268H141.483C141.483 37.0428 141.468 37.1381 141.455 37.2031C141.441 37.27 141.424 37.3249 141.411 37.3644C141.385 37.4409 141.358 37.4979 141.343 37.5275C141.314 37.5862 141.289 37.6235 141.286 37.6276C141.278 37.6398 141.286 37.6279 141.323 37.5799C141.394 37.4897 141.513 37.3452 141.692 37.1377L139.571 35.3095ZM138.683 36.9268V51.209H141.483V36.9268H138.683ZM138.683 51.209C138.683 51.1526 138.696 51.0355 138.771 50.9033C138.847 50.7701 138.943 50.6946 138.999 50.6615L140.419 53.0749C141.103 52.6725 141.483 51.9895 141.483 51.209H138.683ZM139.054 50.6309C139.102 50.6054 139.098 50.6191 138.997 50.6362C138.901 50.6525 138.754 50.6659 138.544 50.6659V53.4659C139.134 53.4659 139.805 53.4015 140.364 53.1055L139.054 50.6309ZM138.544 50.6659H138.391V53.4659H138.544V50.6659ZM152.541 25.2436C152.341 25.2436 152.201 25.2295 152.111 25.2129C152.017 25.1957 152.007 25.1816 152.045 25.2023C152.09 25.2272 152.191 25.2968 152.275 25.4352C152.361 25.5764 152.381 25.7099 152.381 25.7866H149.581C149.581 26.149 149.666 26.5325 149.882 26.8878C150.096 27.2405 150.392 27.4886 150.697 27.6564C151.266 27.9687 151.939 28.0436 152.541 28.0436V25.2436ZM152.381 25.7866V23.4795H149.581V25.7866H152.381ZM152.381 23.4795C152.381 23.5562 152.361 23.6897 152.275 23.8309C152.191 23.9693 152.09 24.0389 152.045 24.0639C152.007 24.0845 152.017 24.0704 152.111 24.0532C152.201 24.0366 152.341 24.0226 152.541 24.0226V21.2226C151.939 21.2226 151.266 21.2974 150.697 21.6097C150.392 21.7775 150.096 22.0256 149.882 22.3783C149.666 22.7337 149.581 23.1171 149.581 23.4795H152.381ZM152.541 24.0226H153.002V21.2226H152.541V24.0226ZM153.002 24.0226C153.207 24.0226 153.351 24.0367 153.446 24.0538C153.544 24.0715 153.557 24.0866 153.522 24.0678C153.48 24.0449 153.379 23.977 153.293 23.8383C153.206 23.6961 153.184 23.5598 153.184 23.4795H155.984C155.984 23.1135 155.897 22.7274 155.678 22.3708C155.461 22.0179 155.162 21.7715 154.856 21.6058C154.286 21.297 153.61 21.2226 153.002 21.2226V24.0226ZM153.184 23.4795V25.7866H155.984V23.4795H153.184ZM153.184 25.7866C153.184 25.7063 153.206 25.5701 153.293 25.4278C153.379 25.2891 153.48 25.2212 153.522 25.1983C153.557 25.1795 153.544 25.1946 153.446 25.2123C153.351 25.2294 153.207 25.2436 153.002 25.2436V28.0436C153.61 28.0436 154.286 27.9691 154.856 27.6603C155.162 27.4946 155.461 27.2482 155.678 26.8953C155.897 26.5388 155.984 26.1526 155.984 25.7866H153.184ZM153.002 25.2436H152.541V28.0436H153.002V25.2436ZM152.695 50.6659C152.495 50.6659 152.355 50.6519 152.264 50.6353C152.171 50.6181 152.161 50.604 152.199 50.6246C152.244 50.6496 152.345 50.7192 152.429 50.8576C152.515 50.9987 152.535 51.1323 152.535 51.209H149.735C149.735 51.5713 149.82 51.9548 150.035 52.3102C150.249 52.6628 150.545 52.911 150.851 53.0788C151.419 53.3911 152.092 53.4659 152.695 53.4659V50.6659ZM152.535 51.209V32.3564H149.735V51.209H152.535ZM152.535 32.3564C152.535 32.4332 152.515 32.5667 152.429 32.7078C152.345 32.8462 152.244 32.9159 152.199 32.9408C152.161 32.9614 152.171 32.9473 152.264 32.9302C152.355 32.9136 152.495 32.8995 152.695 32.8995V30.0995C152.092 30.0995 151.419 30.1743 150.851 30.4867C150.545 30.6544 150.249 30.9026 150.035 31.2552C149.82 31.6106 149.735 31.9941 149.735 32.3564H152.535ZM152.695 32.8995H152.849V30.0995H152.695V32.8995ZM152.849 32.8995C153.053 32.8995 153.197 32.9137 153.292 32.9308C153.39 32.9485 153.403 32.9636 153.368 32.9448C153.326 32.9218 153.225 32.854 153.139 32.7153C153.052 32.573 153.031 32.4368 153.031 32.3564H155.831C155.831 31.9905 155.743 31.6043 155.524 31.2478C155.307 30.8949 155.008 30.6485 154.702 30.4827C154.132 30.174 153.457 30.0995 152.849 30.0995V32.8995ZM153.031 32.3564V51.209H155.831V32.3564H153.031ZM153.031 51.209C153.031 51.1287 153.052 50.9924 153.139 50.8502C153.225 50.7115 153.326 50.6436 153.368 50.6207C153.403 50.6019 153.39 50.6169 153.292 50.6346C153.197 50.6518 153.053 50.6659 152.849 50.6659V53.4659C153.457 53.4659 154.132 53.3914 154.702 53.0827C155.008 52.9169 155.307 52.6706 155.524 52.3176C155.743 51.9611 155.831 51.5749 155.831 51.209H153.031ZM152.849 50.6659H152.695V53.4659H152.849V50.6659ZM159.704 51.2969L158.415 51.8436L158.418 51.8509L158.421 51.858L159.704 51.2969ZM159.506 49.561L158.388 48.7182L158.311 48.8204L158.254 48.9349L159.506 49.561ZM170.954 34.3779L172.072 35.2208L173.763 32.9779H170.954V34.3779ZM160.363 34.1143L159.171 34.848L159.184 34.8697L159.198 34.8908L160.363 34.1143ZM160.363 31.8511L161.528 32.6277L161.542 32.6065L161.556 32.5848L160.363 31.8511ZM175.371 34.0044L176.49 34.8452L176.602 34.6967L176.67 34.5243L175.371 34.0044ZM163.967 49.1875L162.847 48.3467L161.164 50.5875H163.967V49.1875ZM175.305 49.4731L174.112 50.2069L174.126 50.2286L174.14 50.2497L175.305 49.4731ZM175.305 51.7144L174.112 50.9806L175.305 51.7144ZM160.253 50.6C160.566 50.6 160.794 50.7158 160.916 50.7988C161.032 50.8778 161.09 50.9514 161.098 50.9623C161.113 50.9804 161.071 50.9279 160.987 50.7357L158.421 51.858C158.543 52.1346 158.695 52.4337 158.892 52.6861C159.038 52.8734 159.488 53.4 160.253 53.4V50.6ZM160.993 50.7501C160.835 50.3784 160.796 50.1367 160.796 50.0005H157.996C157.996 50.626 158.163 51.2486 158.415 51.8436L160.993 50.7501ZM160.796 50.0005C160.796 50.0959 160.771 50.1624 160.759 50.1871L158.254 48.9349C158.095 49.2526 157.996 49.6121 157.996 50.0005H160.796ZM160.624 50.4039L172.072 35.2208L169.836 33.5351L158.388 48.7182L160.624 50.4039ZM170.954 32.9779H160.957V35.7779H170.954V32.9779ZM160.957 32.9779C160.959 32.9779 161.045 32.9778 161.168 33.0327C161.305 33.0937 161.436 33.1993 161.528 33.3377L159.198 34.8908C159.655 35.5761 160.375 35.7779 160.957 35.7779V32.9779ZM161.556 33.3805C161.585 33.4278 161.599 33.4634 161.604 33.4787C161.61 33.4941 161.609 33.4954 161.606 33.4781C161.598 33.4403 161.587 33.3568 161.587 33.2134H158.788C158.788 33.6979 158.846 34.3199 159.171 34.848L161.556 33.3805ZM161.587 33.2134V32.73H158.788V33.2134H161.587ZM161.587 32.73C161.587 32.6602 161.59 32.6042 161.594 32.5606C161.597 32.5167 161.602 32.4898 161.604 32.4772C161.607 32.4642 161.606 32.4725 161.597 32.4965C161.588 32.5203 161.568 32.5679 161.528 32.6277L159.198 31.0745C158.84 31.6118 158.788 32.2616 158.788 32.73H161.587ZM161.556 32.5848C161.477 32.7133 161.354 32.8273 161.207 32.8982C161.072 32.9629 160.973 32.9654 160.957 32.9654V30.1654C160.329 30.1654 159.607 30.4082 159.171 31.1173L161.556 32.5848ZM160.957 32.9654H174.667V30.1654H160.957V32.9654ZM174.667 32.9654C174.373 32.9654 174.145 32.8599 174.006 32.7644C173.878 32.6764 173.814 32.5907 173.799 32.5701C173.774 32.5358 173.809 32.5754 173.879 32.769L176.511 31.8121C176.405 31.5223 176.264 31.1993 176.063 30.9233C175.894 30.6906 175.442 30.1654 174.667 30.1654V32.9654ZM173.879 32.769C174.017 33.1493 174.058 33.4153 174.058 33.5869H176.858C176.858 32.9968 176.724 32.3986 176.511 31.8121L173.879 32.769ZM174.058 33.5869C174.058 33.5093 174.076 33.4715 174.071 33.4844L176.67 34.5243C176.782 34.2443 176.858 33.9282 176.858 33.5869H174.058ZM174.251 33.1636L162.847 48.3467L165.086 50.0283L176.49 34.8452L174.251 33.1636ZM163.967 50.5875H174.711V47.7875H163.967V50.5875ZM174.711 50.5875C174.695 50.5875 174.595 50.585 174.461 50.5203C174.314 50.4494 174.191 50.3354 174.112 50.2069L176.497 48.7394C176.061 48.0302 175.339 47.7875 174.711 47.7875V50.5875ZM174.14 50.2497C174.1 50.19 174.08 50.1423 174.071 50.1185C174.062 50.0946 174.061 50.0862 174.064 50.0993C174.066 50.1119 174.071 50.1387 174.074 50.1827C174.078 50.2263 174.08 50.2823 174.08 50.3521H176.88C176.88 49.8837 176.828 49.2339 176.47 48.6966L174.14 50.2497ZM174.08 50.3521V50.8354H176.88V50.3521H174.08ZM174.08 50.8354C174.08 50.9687 174.07 51.0448 174.064 51.0772C174.061 51.092 174.06 51.0895 174.066 51.0739C174.072 51.0582 174.085 51.0247 174.112 50.9806L176.497 52.4481C176.819 51.9255 176.88 51.317 176.88 50.8354H174.08ZM174.112 50.9806C174.191 50.8521 174.314 50.7381 174.461 50.6672C174.595 50.6025 174.695 50.6 174.711 50.6V53.4C175.339 53.4 176.061 53.1573 176.497 52.4481L174.112 50.9806ZM174.711 50.6H160.253V53.4H174.711V50.6ZM182.028 25.2436C181.828 25.2436 181.689 25.2295 181.598 25.2129C181.504 25.1957 181.495 25.1816 181.532 25.2023C181.578 25.2272 181.679 25.2968 181.763 25.4352C181.848 25.5764 181.868 25.7099 181.868 25.7866H179.068C179.068 26.149 179.153 26.5325 179.369 26.8878C179.583 27.2405 179.879 27.4886 180.184 27.6564C180.753 27.9687 181.426 28.0436 182.028 28.0436V25.2436ZM181.868 25.7866V23.4795H179.068V25.7866H181.868ZM181.868 23.4795C181.868 23.5562 181.848 23.6897 181.763 23.8309C181.679 23.9693 181.578 24.0389 181.532 24.0639C181.495 24.0845 181.504 24.0704 181.598 24.0532C181.689 24.0366 181.828 24.0226 182.028 24.0226V21.2226C181.426 21.2226 180.753 21.2974 180.184 21.6097C179.879 21.7775 179.583 22.0256 179.369 22.3783C179.153 22.7337 179.068 23.1171 179.068 23.4795H181.868ZM182.028 24.0226H182.49V21.2226H182.028V24.0226ZM182.49 24.0226C182.694 24.0226 182.838 24.0367 182.933 24.0538C183.031 24.0715 183.044 24.0866 183.009 24.0678C182.967 24.0449 182.866 23.977 182.781 23.8383C182.693 23.6961 182.672 23.5598 182.672 23.4795H185.472C185.472 23.1135 185.385 22.7274 185.165 22.3708C184.948 22.0179 184.649 21.7715 184.343 21.6058C183.773 21.297 183.098 21.2226 182.49 21.2226V24.0226ZM182.672 23.4795V25.7866H185.472V23.4795H182.672ZM182.672 25.7866C182.672 25.7063 182.693 25.5701 182.781 25.4278C182.866 25.2891 182.967 25.2212 183.009 25.1983C183.044 25.1795 183.031 25.1946 182.933 25.2123C182.838 25.2294 182.694 25.2436 182.49 25.2436V28.0436C183.098 28.0436 183.773 27.9691 184.343 27.6603C184.649 27.4946 184.948 27.2482 185.165 26.8953C185.385 26.5388 185.472 26.1526 185.472 25.7866H182.672ZM182.49 25.2436H182.028V28.0436H182.49V25.2436ZM182.182 50.6659C181.982 50.6659 181.843 50.6519 181.752 50.6353C181.658 50.6181 181.649 50.604 181.686 50.6246C181.732 50.6496 181.832 50.7192 181.916 50.8576C182.002 50.9987 182.022 51.1323 182.022 51.209H179.222C179.222 51.5713 179.307 51.9548 179.523 52.3102C179.737 52.6628 180.033 52.911 180.338 53.0788C180.907 53.3911 181.58 53.4659 182.182 53.4659V50.6659ZM182.022 51.209V32.3564H179.222V51.209H182.022ZM182.022 32.3564C182.022 32.4332 182.002 32.5667 181.916 32.7078C181.832 32.8462 181.732 32.9159 181.686 32.9408C181.649 32.9614 181.658 32.9473 181.752 32.9302C181.843 32.9136 181.982 32.8995 182.182 32.8995V30.0995C181.58 30.0995 180.907 30.1743 180.338 30.4867C180.033 30.6544 179.737 30.9026 179.523 31.2552C179.307 31.6106 179.222 31.9941 179.222 32.3564H182.022ZM182.182 32.8995H182.336V30.0995H182.182V32.8995ZM182.336 32.8995C182.54 32.8995 182.684 32.9137 182.779 32.9308C182.877 32.9485 182.89 32.9636 182.856 32.9448C182.813 32.9218 182.712 32.854 182.627 32.7153C182.539 32.573 182.518 32.4368 182.518 32.3564H185.318C185.318 31.9905 185.231 31.6043 185.011 31.2478C184.794 30.8949 184.495 30.6485 184.189 30.4827C183.619 30.174 182.944 30.0995 182.336 30.0995V32.8995ZM182.518 32.3564V51.209H185.318V32.3564H182.518ZM182.518 51.209C182.518 51.1287 182.539 50.9924 182.627 50.8502C182.712 50.7115 182.813 50.6436 182.856 50.6207C182.89 50.6019 182.877 50.6169 182.779 50.6346C182.684 50.6518 182.54 50.6659 182.336 50.6659V53.4659C182.944 53.4659 183.619 53.3914 184.189 53.0827C184.495 52.9169 184.794 52.6706 185.011 52.3176C185.231 51.9611 185.318 51.5749 185.318 51.209H182.518ZM182.336 50.6659H182.182V53.4659H182.336V50.6659ZM191.169 51.8682L190.459 53.0749L190.486 53.0908L190.514 53.1055L191.169 51.8682ZM190.554 33.8286L189.184 34.1184L189.185 34.1238L190.554 33.8286ZM191.037 31.895L191.405 33.2457L191.419 33.242L191.432 33.2381L191.037 31.895ZM193.63 33.4771L192.252 33.7232L192.256 33.7469L192.261 33.7704L193.63 33.4771ZM193.806 34.2681L192.447 34.6076L193.091 37.1799L194.852 35.1982L193.806 34.2681ZM196.64 32.1147L196.042 30.8491L196.035 30.8523L196.64 32.1147ZM204.572 33.0376L203.576 34.0211L203.582 34.0276L203.589 34.034L204.572 33.0376ZM205.891 51.8682L206.546 53.1055L206.573 53.0908L206.6 53.0749L205.891 51.8682ZM203.364 51.8682L202.654 53.0749L202.681 53.0908L202.709 53.1055L203.364 51.8682ZM201.936 35.1909L200.956 36.1915L200.967 36.202L200.978 36.2123L201.936 35.1909ZM196.354 34.9272L197.029 36.154L197.036 36.1501L196.354 34.9272ZM194.069 36.9268L192.954 36.0806L192.669 36.4558V36.9268H194.069ZM193.696 51.8682L194.351 53.1055L194.379 53.0908L194.406 53.0749L193.696 51.8682ZM192.377 50.6659C192.15 50.6659 191.989 50.6521 191.884 50.6349C191.771 50.6164 191.769 50.6016 191.824 50.6309L190.514 53.1055C191.08 53.4052 191.774 53.4659 192.377 53.4659V50.6659ZM191.879 50.6615C191.935 50.6946 192.031 50.7701 192.107 50.9033C192.182 51.0355 192.195 51.1526 192.195 51.209H189.395C189.395 51.9895 189.775 52.6725 190.459 53.0749L191.879 50.6615ZM192.195 51.209V37.498H189.395V51.209H192.195ZM192.195 37.498C192.195 35.7899 192.117 34.4376 191.922 33.5334L189.185 34.1238C189.312 34.7137 189.395 35.8078 189.395 37.498H192.195ZM191.923 33.5389C191.843 33.1607 191.785 32.8754 191.747 32.6789C191.728 32.5798 191.716 32.5115 191.709 32.4688C191.705 32.4471 191.704 32.4404 191.705 32.4442C191.705 32.4462 191.706 32.4568 191.708 32.4731C191.709 32.4855 191.712 32.5241 191.712 32.5762H188.912C188.912 32.731 188.94 32.8905 188.946 32.9225C188.959 33.0025 188.977 33.0999 188.998 33.2095C189.04 33.4305 189.103 33.7348 189.184 34.1184L191.923 33.5389ZM191.712 32.5762C191.712 32.6752 191.692 32.7943 191.639 32.9162C191.586 33.0372 191.514 33.126 191.452 33.1846C191.342 33.2876 191.281 33.2796 191.405 33.2457L190.669 30.5444C190.31 30.6423 189.886 30.8138 189.535 31.1438C189.141 31.5133 188.912 32.0161 188.912 32.5762H191.712ZM191.432 33.2381C191.824 33.1227 192.159 33.0753 192.443 33.0753V30.2753C191.849 30.2753 191.246 30.3743 190.642 30.5519L191.432 33.2381ZM192.443 33.0753C192.408 33.0753 192.352 33.0703 192.285 33.0495C192.217 33.0282 192.152 32.9954 192.096 32.9545C191.984 32.8728 191.96 32.7998 191.977 32.8371L194.536 31.7C194.376 31.3418 194.129 30.9721 193.747 30.6927C193.349 30.4028 192.894 30.2753 192.443 30.2753V33.0753ZM191.977 32.8371C192.109 33.1335 192.199 33.4283 192.252 33.7232L195.008 33.2309C194.914 32.7055 194.756 32.1946 194.536 31.7L191.977 32.8371ZM192.261 33.7704C192.347 34.1742 192.411 34.4628 192.447 34.6076L195.164 33.9285C195.141 33.8389 195.088 33.6002 194.999 33.1837L192.261 33.7704ZM194.852 35.1982C195.554 34.4084 196.351 33.8062 197.245 33.3771L196.035 30.8523C194.791 31.4487 193.698 32.282 192.759 33.338L194.852 35.1982ZM197.239 33.3803C198.153 32.9479 199.041 32.7457 199.914 32.7457V29.9457C198.59 29.9457 197.295 30.2562 196.042 30.8492L197.239 33.3803ZM199.914 32.7457C201.633 32.7457 202.789 33.2242 203.576 34.0211L205.569 32.0541C204.129 30.5951 202.179 29.9457 199.914 29.9457V32.7457ZM203.589 34.034C204.39 34.8243 204.864 35.9686 204.864 37.6519H207.664C207.664 35.4093 207.011 33.4774 205.556 32.0412L203.589 34.034ZM204.864 37.6519V51.209H207.664V37.6519H204.864ZM204.864 51.209C204.864 51.1526 204.878 51.0355 204.953 50.9033C205.028 50.7701 205.124 50.6946 205.181 50.6615L206.6 53.0749C207.284 52.6725 207.664 51.9895 207.664 51.209H204.864ZM205.236 50.6309C205.287 50.6035 205.284 50.6177 205.177 50.6355C205.077 50.6523 204.923 50.6659 204.704 50.6659V53.4659C205.3 53.4659 205.983 53.4034 206.546 53.1055L205.236 50.6309ZM204.704 50.6659H204.528V53.4659H204.704V50.6659ZM204.528 50.6659C204.319 50.6659 204.172 50.6525 204.076 50.6362C203.975 50.6191 203.971 50.6054 204.019 50.6309L202.709 53.1055C203.268 53.4015 203.939 53.4659 204.528 53.4659V50.6659ZM204.074 50.6615C204.13 50.6946 204.226 50.7701 204.302 50.9033C204.377 51.0355 204.39 51.1526 204.39 51.209H201.59C201.59 51.9895 201.97 52.6725 202.654 53.0749L204.074 50.6615ZM204.39 51.209V37.9814H201.59V51.209H204.39ZM204.39 37.9814C204.39 36.4951 203.945 35.1558 202.893 34.1696L200.978 36.2123C201.332 36.5444 201.59 37.0654 201.59 37.9814H204.39ZM202.915 34.1904C201.892 33.189 200.522 32.7802 199.013 32.7802V35.5802C200.024 35.5802 200.602 35.8452 200.956 36.1915L202.915 34.1904ZM199.013 32.7802C197.859 32.7802 196.74 33.1094 195.673 33.7044L197.036 36.1501C197.756 35.749 198.409 35.5802 199.013 35.5802V32.7802ZM195.68 33.7005C194.618 34.2844 193.709 35.0847 192.954 36.0806L195.185 37.7729C195.718 37.0696 196.333 36.5369 197.029 36.1539L195.68 33.7005ZM192.669 36.9268V51.209H195.469V36.9268H192.669ZM192.669 51.209C192.669 51.1526 192.683 51.0355 192.758 50.9033C192.833 50.7701 192.93 50.6946 192.986 50.6615L194.406 53.0749C195.09 52.6725 195.469 51.9895 195.469 51.209H192.669ZM193.041 50.6309C193.089 50.6054 193.084 50.6191 192.984 50.6362C192.888 50.6525 192.741 50.6659 192.531 50.6659V53.4659C193.12 53.4659 193.792 53.4015 194.351 53.1055L193.041 50.6309ZM192.531 50.6659H192.377V53.4659H192.531V50.6659ZM214.548 50.5498L215.071 51.8484L215.563 51.6503L215.8 51.1759L214.548 50.5498ZM214.592 50.4619L215.844 51.088L216.359 50.0573L215.447 49.3534L214.592 50.4619ZM213.405 49.0996L212.16 49.7399L212.167 49.7538L212.175 49.7675L213.405 49.0996ZM215.207 43.189L216.01 44.3359L217.971 42.9629L215.813 41.9268L215.207 43.189ZM212.702 40.9697L211.497 41.682L211.502 41.69L212.702 40.9697ZM212.724 34.4658L211.535 33.7271L211.531 33.7336L211.527 33.7402L212.724 34.4658ZM221.843 31.5654L221.545 32.9335L221.692 32.9654H221.843V31.5654ZM229.533 31.8511L228.341 32.5848L228.375 32.6396L228.413 32.6911L229.533 31.8511ZM229.533 34.1143L228.382 33.3174L228.375 33.3275L228.368 33.3377L229.533 34.1143ZM226.215 34.2681L226.338 32.8734L225.511 32.8009L225.05 33.4915L226.215 34.2681ZM226.171 34.334L225.007 33.5574L224.469 34.3639L225.035 35.1511L226.171 34.334ZM226.918 35.916L225.569 36.2872L225.574 36.3076L225.58 36.3277L226.918 35.916ZM226.281 40.9697L225.092 40.231L225.088 40.2375L225.084 40.2441L226.281 40.9697ZM223.667 43.2549L223.06 41.9932L223.053 41.9963L223.667 43.2549ZM219.492 44.0898V42.6898H219.467L219.442 42.6907L219.492 44.0898ZM216.701 44.771L215.937 43.5978L215.931 43.6019L215.925 43.6061L216.701 44.771ZM216.438 48.3745L215.541 49.45L215.55 49.4572L215.559 49.4643L216.438 48.3745ZM220.942 49.561L221.102 48.1702L221.095 48.1694L220.942 49.561ZM222.084 49.6929L222.268 48.305L222.257 48.3035L222.245 48.3021L222.084 49.6929ZM227.16 51.7363L226.077 52.6229L226.083 52.6302L226.089 52.6374L227.16 51.7363ZM225.71 58.7456L224.931 57.5824L224.923 57.5877L225.71 58.7456ZM216.108 40.6182L215.304 41.7642L215.313 41.7707L216.108 40.6182ZM223.535 56.8999L222.876 55.6646L222.868 55.6689L222.86 55.6732L223.535 56.8999ZM224.15 53.2744L224.99 52.1544L224.979 52.1459L224.967 52.1376L224.15 53.2744ZM222.414 52.5493L222.705 51.18L222.694 51.1776L222.683 51.1754L222.414 52.5493ZM219.733 52.1758L219.573 53.5666L219.587 53.5681L219.733 52.1758ZM217.844 51.9341L217.634 53.3183L217.64 53.3192L217.844 51.9341ZM216.503 51.6265L216.932 50.2936L216.436 50.1344L215.957 50.3374L216.503 51.6265ZM219.074 58.8837C216.706 58.8837 214.993 58.5107 213.824 57.8849L212.503 60.3534C214.234 61.2803 216.462 61.6837 219.074 61.6837V58.8837ZM213.824 57.8849C213.289 57.5981 212.949 57.2648 212.736 56.9056C212.523 56.5453 212.388 56.0777 212.388 55.4497H209.588C209.588 56.4916 209.816 57.4706 210.328 58.3334C210.84 59.1974 211.588 59.8638 212.503 60.3534L213.824 57.8849ZM212.388 55.4497C212.388 54.5971 212.627 53.9078 213.083 53.3196L210.871 51.6032C210.009 52.7143 209.588 54.0172 209.588 55.4497H212.388ZM213.083 53.3196C213.582 52.6772 214.232 52.1861 215.071 51.8484L214.025 49.2512C212.754 49.7631 211.691 50.5464 210.871 51.6032L213.083 53.3196ZM215.8 51.1759L215.844 51.088L213.34 49.8358L213.296 49.9237L215.8 51.1759ZM215.447 49.3534C215.072 49.0639 214.811 48.755 214.636 48.4317L212.175 49.7675C212.556 50.4696 213.087 51.0689 213.737 51.5704L215.447 49.3534ZM214.65 48.4593C214.508 48.1836 214.41 47.8045 214.41 47.2759H211.61C211.61 48.1535 211.775 48.9903 212.16 49.7399L214.65 48.4593ZM214.41 47.2759C214.41 46.0611 214.896 45.1155 216.01 44.3359L214.404 42.042C212.588 43.3132 211.61 45.0923 211.61 47.2759H214.41ZM215.813 41.9268C214.936 41.506 214.319 40.9439 213.903 40.2494L211.502 41.69C212.228 42.8998 213.281 43.8172 214.601 44.4511L215.813 41.9268ZM213.907 40.2575C213.473 39.5215 213.245 38.6865 213.245 37.7178H210.445C210.445 39.1514 210.789 40.4844 211.497 41.6819L213.907 40.2575ZM213.245 37.7178C213.245 36.7558 213.476 35.9256 213.921 35.1914L211.527 33.7402C210.8 34.9396 210.445 36.2774 210.445 37.7178H213.245ZM213.913 35.2046C214.356 34.492 215.019 33.8988 215.968 33.4423L214.754 30.919C213.389 31.5758 212.293 32.5061 211.535 33.7271L213.913 35.2046ZM215.968 33.4423C216.892 32.9976 218.066 32.7457 219.536 32.7457V29.9457C217.754 29.9457 216.144 30.2504 214.754 30.919L215.968 33.4423ZM219.536 32.7457C220.324 32.7457 220.99 32.8128 221.545 32.9335L222.14 30.1974C221.348 30.0251 220.476 29.9457 219.536 29.9457V32.7457ZM221.843 32.9654H228.94V30.1654H221.843V32.9654ZM228.94 32.9654C228.923 32.9654 228.824 32.9629 228.69 32.8982C228.542 32.8273 228.42 32.7133 228.341 32.5848L230.726 31.1173C230.289 30.4082 229.567 30.1654 228.94 30.1654V32.9654ZM228.413 32.6911C228.368 32.6307 228.343 32.5795 228.33 32.5491C228.317 32.5189 228.314 32.5037 228.316 32.51C228.317 32.5159 228.321 32.5365 228.325 32.575C228.328 32.6132 228.331 32.6643 228.331 32.73H231.131C231.131 32.2439 231.067 31.5632 230.653 31.0111L228.413 32.6911ZM228.331 32.73V33.2134H231.131V32.73H228.331ZM228.331 33.2134C228.331 33.279 228.328 33.331 228.325 33.3711C228.321 33.4113 228.316 33.4354 228.314 33.446C228.312 33.4569 228.313 33.449 228.321 33.4275C228.33 33.4058 228.348 33.3663 228.382 33.3174L230.684 34.9112C231.061 34.3667 231.131 33.7155 231.131 33.2134H228.331ZM228.368 33.3377C228.461 33.1993 228.591 33.0937 228.728 33.0327C228.852 32.9778 228.937 32.9779 228.94 32.9779V35.7779C229.521 35.7779 230.241 35.5761 230.698 34.8908L228.368 33.3377ZM228.94 32.9779C227.993 32.9779 227.126 32.9426 226.338 32.8734L226.093 35.6627C226.975 35.7401 227.924 35.7779 228.94 35.7779V32.9779ZM225.05 33.4915L225.007 33.5574L227.336 35.1106L227.38 35.0446L225.05 33.4915ZM225.035 35.1511C225.27 35.478 225.449 35.8529 225.569 36.2872L228.268 35.5448C228.066 34.8073 227.747 34.1275 227.308 33.5169L225.035 35.1511ZM225.58 36.3277C225.713 36.7586 225.782 37.2199 225.782 37.7178H228.582C228.582 36.9559 228.476 36.216 228.257 35.5043L225.58 36.3277ZM225.782 37.7178C225.782 38.673 225.547 39.4985 225.092 40.231L227.47 41.7085C228.217 40.5074 228.582 39.1649 228.582 37.7178H225.782ZM225.084 40.2441C224.657 40.9483 224.006 41.5378 223.06 41.9932L224.273 44.5165C225.641 43.8587 226.733 42.9247 227.479 41.6953L225.084 40.2441ZM223.053 41.9963C222.149 42.4369 220.979 42.6898 219.492 42.6898V45.4898C221.285 45.4898 222.899 45.1862 224.28 44.5135L223.053 41.9963ZM219.442 42.6907C218.103 42.7386 216.876 42.9867 215.937 43.5978L217.465 45.9442C217.786 45.735 218.42 45.529 219.542 45.489L219.442 42.6907ZM215.925 43.6061C214.815 44.3457 214.378 45.5283 214.378 46.7925H217.178C217.178 46.1816 217.357 46.0166 217.478 45.9359L215.925 43.6061ZM214.378 46.7925C214.378 47.8032 214.717 48.7634 215.541 49.45L217.334 47.299C217.279 47.2532 217.178 47.1587 217.178 46.7925H214.378ZM215.559 49.4643C216.211 49.99 216.984 50.3272 217.832 50.5116L218.427 47.7755C217.927 47.6669 217.573 47.4915 217.316 47.2847L215.559 49.4643ZM217.832 50.5116C218.576 50.6734 219.57 50.8188 220.789 50.9527L221.095 48.1694C219.912 48.0396 219.03 47.9067 218.427 47.7755L217.832 50.5116ZM220.781 50.9518L221.924 51.0836L222.245 48.3021L221.102 48.1703L220.781 50.9518ZM221.901 51.0807C223.06 51.2344 223.982 51.4381 224.689 51.6778L225.588 49.0263C224.654 48.7094 223.541 48.4736 222.268 48.305L221.901 51.0807ZM224.689 51.6778C225.271 51.8755 225.722 52.1896 226.077 52.6229L228.244 50.8498C227.544 49.994 226.647 49.3853 225.588 49.0263L224.689 51.6778ZM226.089 52.6374C226.356 52.9551 226.573 53.4842 226.573 54.395H229.373C229.373 53.05 229.048 51.8066 228.232 50.8353L226.089 52.6374ZM226.573 54.395C226.573 55.8403 226.033 56.844 224.931 57.5825L226.489 59.9087C228.404 58.6257 229.373 56.729 229.373 54.395H226.573ZM224.923 57.5877C223.747 58.3867 221.862 58.8837 219.074 58.8837V61.6837C222.116 61.6837 224.655 61.1553 226.497 59.9035L224.923 57.5877ZM219.492 42.8971C221.104 42.8971 222.556 42.5696 223.714 41.7707L222.125 39.4657C221.584 39.8386 220.751 40.0971 219.492 40.0971V42.8971ZM223.714 41.7707C225.051 40.8487 225.594 39.3836 225.594 37.7397H222.794C222.794 38.762 222.487 39.2158 222.125 39.4657L223.714 41.7707ZM225.594 37.7397C225.594 36.1732 225.092 34.7754 223.895 33.814C222.758 32.8996 221.21 32.5604 219.492 32.5604V35.3604C220.908 35.3604 221.712 35.6511 222.141 35.9965C222.512 36.2949 222.794 36.7867 222.794 37.7397H225.594ZM219.492 32.5604C217.792 32.5604 216.257 32.9011 215.13 33.8201C213.948 34.7838 213.455 36.18 213.455 37.7397H216.255C216.255 36.78 216.536 36.2865 216.899 35.9904C217.317 35.6497 218.101 35.3604 219.492 35.3604V32.5604ZM213.455 37.7397C213.455 39.3742 213.984 40.8383 215.304 41.7641L216.912 39.4722C216.562 39.2262 216.255 38.7713 216.255 37.7397H213.455ZM215.313 41.7707C216.467 42.5667 217.902 42.8971 219.492 42.8971V40.0971C218.269 40.0971 217.448 39.8415 216.903 39.4657L215.313 41.7707ZM219.492 59.025C221.381 59.025 223.017 58.7824 224.209 58.1266L222.86 55.6732C222.295 55.9842 221.235 56.225 219.492 56.225V59.025ZM224.193 58.1352C224.812 57.8051 225.345 57.3488 225.717 56.741C226.091 56.131 226.253 55.4488 226.253 54.7466H223.453C223.453 55.0111 223.395 55.1713 223.329 55.279C223.262 55.389 223.136 55.5259 222.876 55.6646L224.193 58.1352ZM226.253 54.7466C226.253 53.7144 225.841 52.7926 224.99 52.1544L223.31 54.3944C223.397 54.4594 223.453 54.519 223.453 54.7466H226.253ZM224.967 52.1376C224.31 51.6657 223.543 51.3581 222.705 51.18L222.123 53.9187C222.662 54.0335 223.052 54.2093 223.333 54.4112L224.967 52.1376ZM222.683 51.1754C221.951 51.0323 221.012 50.9027 219.88 50.7835L219.587 53.5681C220.681 53.6833 221.529 53.8027 222.145 53.9233L222.683 51.1754ZM219.894 50.785C219.14 50.698 218.526 50.6193 218.047 50.549L217.64 53.3192C218.158 53.3953 218.803 53.4778 219.573 53.5666L219.894 50.785ZM218.053 50.5499C217.635 50.4864 217.262 50.3997 216.932 50.2936L216.075 52.9593C216.565 53.1169 217.086 53.2353 217.634 53.3183L218.053 50.5499ZM215.957 50.3374C214.957 50.7613 214.093 51.3271 213.473 52.0886C212.834 52.8737 212.511 53.8005 212.511 54.8125H215.311C215.311 54.4329 215.419 54.1329 215.645 53.856C215.889 53.5555 216.321 53.2241 217.05 52.9155L215.957 50.3374ZM212.511 54.8125C212.511 55.524 212.691 56.2094 213.092 56.8153C213.487 57.413 214.044 57.8536 214.676 58.1721C215.9 58.789 217.559 59.025 219.492 59.025V56.225C217.704 56.225 216.572 55.9923 215.936 55.6717C215.638 55.5214 215.497 55.376 215.427 55.2706C215.363 55.1734 215.311 55.0385 215.311 54.8125H212.511Z" fill="#2B5DEF"/>
</g>
<defs>
<filter id="filter0_d_570_1454" x="2.17603" y="22.0195" width="52.2273" height="39.1632" filterUnits="userSpaceOnUse" color-interpolation-filters="sRGB">
<feFlood flood-opacity="0" result="BackgroundImageFix"/>
<feColorMatrix in="SourceAlpha" type="matrix" values="0 0 0 0 0 0 0 0 0 0 0 0 0 0 0 0 0 0 127 0" result="hardAlpha"/>
<feOffset dy="4"/>
<feGaussianBlur stdDeviation="2"/>
<feComposite in2="hardAlpha" operator="out"/>
<feColorMatrix type="matrix" values="0 0 0 0 0 0 0 0 0 0 0 0 0 0 0 0 0 0 0.25 0"/>
<feBlend mode="normal" in2="BackgroundImageFix" result="effect1_dropShadow_570_1454"/>
<feBlend mode="normal" in="SourceGraphic" in2="effect1_dropShadow_570_1454" result="shape"/>
</filter>
<filter id="filter1_d_570_1454" x="47.2354" y="17.6226" width="189.496" height="51.6611" filterUnits="userSpaceOnUse" color-interpolation-filters="sRGB">
<feFlood flood-opacity="0" result="BackgroundImageFix"/>
<feColorMatrix in="SourceAlpha" type="matrix" values="0 0 0 0 0 0 0 0 0 0 0 0 0 0 0 0 0 0 127 0" result="hardAlpha"/>
<feOffset dy="2"/>
<feGaussianBlur stdDeviation="3.5"/>
<feComposite in2="hardAlpha" operator="out"/>
<feColorMatrix type="matrix" values="0 0 0 0 0 0 0 0 0 0 0 0 0 0 0 0 0 0 0.25 0"/>
<feBlend mode="normal" in2="BackgroundImageFix" result="effect1_dropShadow_570_1454"/>
<feBlend mode="normal" in="SourceGraphic" in2="effect1_dropShadow_570_1454" result="shape"/>
</filter>
</defs>
</svg>
